<ttFont>
          <CharString index="0">
            -76 callgsubr
            -54 callgsubr
            -1016 vlineto
            -149 -21 -103 callgsubr
            return
          </CharString>
          <CharString index="1">
            195 -27 12 -59 -274 vvcurveto
            -476 vlineto
            -315 -84 -215 -274 -170 -86 84 270 vhcurveto
            836 vlineto
            149 26 21 140 6 vhcurveto
            41 vlineto
            -84 -4 -142 -2 -141 -141 -142 2 -77 hflex1
            -41 vlineto
            125 -6 20 -54 callgsubr
            -643 vlineto
            -252 27 -166 141 -102 vhcurveto
            -78 109 151 -21 125 hhcurveto
            236 133 72 119 71 hvcurveto
            66 108 18 156 170 vvcurveto
            494 vlineto
            231 21 61 125 27 vhcurveto
            endchar
          </CharString>
          <CharString index="2">
            -74 -168 -51 -62 -64 -10 rrcurveto
            169 callgsubr
            64 2 53 94 72 -2 102 -80 callsubr
            -108 4 -82 28 119 vvcurveto
            59 20 82 48 113 vhcurveto
            384 hlineto
            101 -233 rlineto
            18 -38 8 -30 -24 vvcurveto
            -55 -45 -21 -80 166 callsubr
            78 4 -20 callgsubr
            110 121 -2 70 62 callgsubr
            -39 35 -45 94 rrcurveto
            -564 315 rmoveto
            -349 hlineto
            174 403 rlineto
            endchar
          </CharString>
          <CharString index="3">
            -50 -108 2 6 -58 hvcurveto
            -43 vlineto
            85 -6 65 -66 -134 vvcurveto
            -57 -11 -70 -28 -83 vhcurveto
            -85 -262 -253 600 rlineto
            -6 13 -2 10 9 vvcurveto
            45 61 1 62 vhcurveto
            43 vlineto
            -82 -6 -88 -6 -127 -103 -122 4 -109 -9 callsubr
            29 43 -10 -105 47 hvcurveto
            478 -1056 -11 -33 rlineto
            -113 -37 -70 -51 -88 hhcurveto
            -16 -33 0 4 -20 hvcurveto
            92 29 41 69 227 callsubr
            -113 -120 -80 -61 -97 -143 166 -49 112 101 53 20 29 37 vhcurveto
            39 31 26 47 25 70 86 247 rcurveline
            256 762 45 133 49 47 51 19 rlinecurve
            43 vlineto
            return
          </CharString>
          <CharString index="4">
            rmoveto
            -101 -131 -166 -137 -178 -84 11 -31 rcurveline
            155 29 166 51 90 45 -16 callsubr
            return
          </CharString>
          <CharString index="5">
            -92 callgsubr
            -123 6 -23 21 149 vvcurveto
            return
          </CharString>
          <CharString index="6">
            rmoveto
            -430 -303 -266 -398 -407 293 -232 438 430 303 267 397 407 -293 232 -438 hvcurveto
            -8 -37 rmoveto
            182 147 -236 -374 -363 -122 -256 -193 -182 -148 236 374 363 123 256 193 hvcurveto
            endchar
          </CharString>
          <CharString index="7">
            6 callgsubr
            103 -4 62 -50 -125 vvcurveto
            -74 -22 -101 -49 -133 vhcurveto
            -122 -331 -238 646 rlineto
            -13 36 -7 29 24 vvcurveto
            55 37 24 81 4 vhcurveto
            41 vlineto
            294 callsubr
            -110 -121 2 -70 214 callgsubr
            49 -41 35 -88 113 -275 rcurveline
            -157 -401 -269 635 rlineto
            -13 32 -6 27 24 vvcurveto
            53 30 32 46 4 vhcurveto
            41 vlineto
            91 callsubr
            -110 -121 2 -70 214 callgsubr
            39 -35 45 -94 481 107 callgsubr
            23 hflex1
            281 736 302 -736 rlineto
            132 callgsubr
            338 918 64 172 78 84 295 callsubr
            return
          </CharString>
          <CharString index="8">
            rmoveto
            hintmask 10100110
            -305 -223 -113 -227 -199 206 -143 232 -139 hvcurveto
            176 -109 76 -61 -103 vvcurveto
            -114 -109 -43 -102 vhcurveto
            hintmask 10101001
            -258 -156 180 315 -20 hvcurveto
            -48 hlineto
            hintmask 01101001
            -313 -2 -127 -6 -92 vhcurveto
            47 hlineto
            59 9 10 31 26 hhcurveto
            hintmask 10100110
            17 20 -8 -15 35 hvcurveto
            -30 76 113 -52 151 hhcurveto
            332 231 117 231 220 -198 123 -187 110 hvcurveto
            -200 127 -134 80 113 vvcurveto
            79 82 54 131 vhcurveto
            hintmask 10101001
            199 156 -138 -286 39 hvcurveto
            47 hlineto
            hintmask 10011001
            282 4 97 6 80 vhcurveto
            -47 hlineto
            -58 -8 -11 -33 -26 hhcurveto
            hintmask 10101001
            -19 -18 11 18 -33 hvcurveto
            37 -67 -103 39 -141 hhcurveto
            endchar
          </CharString>
          <CharString index="9">
            rmoveto
            -318 -209 -148 -414 -413 209 -146 318 317 209 146 413 414 -209 148 -317 hvcurveto
            -41 vmoveto
            82 61 -154 -367 -366 -61 -152 -82 -82 -62 152 366 367 62 154 82 hvcurveto
            endchar
          </CharString>
          <CharString index="10">
            rmoveto
            -41 -4 -67 -2 -62 -94 -88 2 -68 hflex1
            -41 vlineto
            189 -26 39 -41 -191 vvcurveto
            -446 vlineto
            -654 745 rlineto
            -82 -4 -100 -2 -109 49 callgsubr
            141 callsubr
            -729 vlineto
            -190 -21 -41 107 callsubr
            95 88 -2 67 102 callgsubr
            27 -39 41 190 vvcurveto
            641 vlineto
            819 -940 rlineto
            25 2 25 1 25 25 26 -1 24 hflex1
            946 vlineto
            191 20 41 125 26 vhcurveto
            return
          </CharString>
          <CharString index="11">
            -21 -79 callsubr
            return
          </CharString>
          <CharString index="12">
            -49 -129 2 6 -58 hvcurveto
            -43 vlineto
            95 -9 71 -67 -143 vvcurveto
            -54 -10 -66 -23 -77 vhcurveto
            -88 -292 -233 749 rlineto
            -39 -2 -41 -2 -39 -33 -33 1 -32 hflex1
            -2 hlineto
            -176 -686 -170 567 rlineto
            -3 11 -1 9 8 vvcurveto
            44 43 6 75 vhcurveto
            43 vlineto
            -82 -6 -100 -6 -84 -143 -113 4 -109 -9 callsubr
            29 51 -6 -109 39 hvcurveto
            316 295 callgsubr
            33 2 33 33 34 268 callsubr
            186 708 244 -708 rlineto
            33 3 34 2 33 33 34 268 callsubr
            256 821 43 135 51 45 51 19 rlinecurve
            43 vlineto
            return
          </CharString>
          <CharString index="13">
            -149 -21 -96 callsubr
            return
          </CharString>
          <CharString index="14">
            -180 -59 -80 -91 -139 vvcurveto
            -141 94 -94 164 127 109 61 94 57 vhcurveto
            -82 2 55 -73 154 hhcurveto
            117 84 20 55 65 hvcurveto
            -20 35 rlineto
            -14 -19 -20 -16 -25 hhcurveto
            -22 -9 22 66 hvcurveto
            548 vlineto
            142 -10 86 -57 59 vhcurveto
            return
          </CharString>
          <CharString index="15">
            -131 -72 -60 -26 callsubr
            129 74 60 116 117 -74 60 -129 hvcurveto
            return
          </CharString>
          <CharString index="16">
            -102 -117 -8 -137 204 callgsubr
            return
          </CharString>
          <CharString index="17">
            169 callgsubr
            63 2 54 94 72 -2 102 -80 callsubr
            -109 4 -76 25 120 vvcurveto
            61 20 86 46 120 vhcurveto
            35 92 rlineto
            413 hlineto
            122 -336 rlineto
            16 -42 9 -31 -24 vvcurveto
            -56 -47 -15 -97 166 callsubr
            return
          </CharString>
          <CharString index="18">
            rmoveto
            -101 -47 -24 -102 -199 -168 14 -25 rcurveline
            240 74 102 -19 95 50 rrcurveto
            48 23 29 48 49 vvcurveto
            18 -4 18 -8 18 vhcurveto
            53 -26 -53 24 -50 hhcurveto
            -23 -22 -5 -9 -18 hvcurveto
            return
          </CharString>
          <CharString index="19">
            rmoveto
            -82 callsubr
            hintmask 11110100
            -93 callsubr
            hintmask 11101100
            82 -78 -113 21 -143 hhcurveto
            33 -908 rmoveto
            -26 -25 -22 -8 -29 hhcurveto
            hintmask 11110100
            -25 callsubr
          </CharString>
          <CharString index="20">
            rmoveto
            -92 callsubr
            return
          </CharString>
          <CharString index="21">
            rmoveto
            hintmask 11010000
            6 callgsubr
            98 -4 66 -41 -107 vvcurveto
            -70 -29 -99 -68 -136 vhcurveto
            -93 -185 -292 562 rlineto
            -6 12 -3 11 8 vvcurveto
            46 79 1 86 vhcurveto
            43 vlineto
            -137 -6 -175 -6 -139 -110 -88 4 -84 -9 callsubr
            28 43 -29 -86 47 hvcurveto
            hintmask 11100000
            379 -700 rlineto
            -377 84 callgsubr
            74 4 141 2 139 127 146 -2 79 -19 callgsubr
            545 vlineto
            190 377 rlineto
            hintmask 11010000
            84 166 70 75 64 31 rrcurveto
            103 callgsubr
          </CharString>
          <CharString index="22">
            -141 vvcurveto
            -143 -41 143 -830 hlineto
            -114 -37 -33 -98 vhcurveto
            -43 vlineto
            2 63 142 6 126 hhcurveto
            119 129 -6 -2 60 hvcurveto
            -19 callsubr
            830 322 -830 vlineto
            -114 -37 -33 -99 vhcurveto
            -43 vlineto
            2 64 123 callsubr
            135 -6 -2 68 234 callsubr
            -58 31 116 hvcurveto
            830 187 return
          </CharString>
          <CharString index="23">
            -6 -64 callsubr
            return
          </CharString>
          <CharString index="24">
            rmoveto
            41 vlineto
            -199 -6 -237 0 -205 -125 -176 0 -127 hflex1
            10 -137 4 -139 -68 vvcurveto
            -57 -2 -56 -4 -35 vhcurveto
            47 hlineto
            349 47 244 96 168 hhcurveto
            102 hlineto
            -620 -1362 rlineto
            -41 vlineto
            180 6 213 0 186 150 209 0 151 hflex1
            55 callsubr
            -41 -315 -115 -140 hhcurveto
            -86 hlineto
            endchar
          </CharString>
          <CharString index="25">
            108 callsubr
            -73 -39 -54 -63 -86 vvcurveto
            -101 66 -78 102 119 78 76 96 93 -49 59 -88 33 vhcurveto
            20 30 43 15 35 hhcurveto
            131 21 -105 -63 hvcurveto
            -183 vlineto
            -92 -125 -41 -160 -57 vhcurveto
            return
          </CharString>
          <CharString index="26">
            -41 vlineto
            -76 callgsubr
            -54 callgsubr
            -1016 -21 callsubr
            return
          </CharString>
          <CharString index="27">
            hflex1
            41 vlineto
            return
          </CharString>
          <CharString index="28">
            -125 -84 callsubr
            return
          </CharString>
          <CharString index="29">
            39 callgsubr
            hintmask 0111010010000000
            -64 callgsubr
            hintmask 1011010010000000
            -29 callgsubr
            hintmask 1011011000000000
            56 -65 28 -86 19 -90 rrcurveto
            47 hlineto
            hintmask 1010110100000000
            206 2 115 6 88 vhcurveto
            -47 hlineto
            -87 -8 -16 -37 -27 hhcurveto
            -11 -14 7 13 -16 hvcurveto
            hintmask 1011011000000000
            69 -97 -90 64 -190 hhcurveto
            endchar
          </CharString>
          <CharString index="30">
            -74 callsubr
            -1172 78 callgsubr
            92 2 159 4 170 179 174 -4 96 102 callgsubr
            -39 22 168 hvcurveto
            return
          </CharString>
          <CharString index="31">
            1704 rmoveto
            -88 -164 -141 -170 -154 -100 17 -29 rcurveline
            131 29 135 49 78 45 94 -45 168 -49 164 -29 16 29 rcurveline
            -156 102 -143 170 -84 162 rrcurveto
            return
          </CharString>
          <CharString index="32">
            rmoveto
            hintmask 10101100
            -36 callgsubr
            hintmask 10110010
            33 callsubr
            hintmask 01110010
            50 callsubr
            hintmask 10110100
            -66 callgsubr
            hintmask 10101100
            29 callgsubr
            hintmask 10110010
            -67 callsubr
            endchar
          </CharString>
          <CharString index="33">
            -194 -6 -281 0 -192 -193 -282 0 -195 hflex1
            10 -162 4 -164 -80 vvcurveto
            -57 -2 -55 -4 -35 vhcurveto
            47 hlineto
            387 97 157 119 150 hhcurveto
            2 return
          </CharString>
          <CharString index="34">
            -41 -43 2 4 -43 hvcurveto
            return
          </CharString>
          <CharString index="35">
            1860 rmoveto
            8 -19 -19 3 -17 hhcurveto
            -54 -44 -34 -49 -21 hvcurveto
            -11 -28 -3 -28 -33 -33 3 -38 -48 -14 -1 -15 -16 vvcurveto
            -1 -27 -2 -30 -4 -34 27 -12 rcurveline
            123 147 80 31 30 76 rrcurveto
            9 20 4 20 20 vvcurveto
            47 -25 44 -55 23 vhcurveto
            return
          </CharString>
          <CharString index="36">
            1688 rmoveto
            8 -18 -19 3 -18 hhcurveto
            -59 -54 -36 -53 -19 hvcurveto
            -9 -25 -3 -25 -28 -49 8 -59 -86 -10 0 -10 -10 vvcurveto
            -25 -2 -27 -2 -29 vhcurveto
            29 -8 119 172 78 43 34 77 rlinecurve
            9 21 4 20 20 vvcurveto
            51 -28 44 -50 21 vhcurveto
            return
          </CharString>
          <CharString index="37">
            147 callgsubr
            239 callgsubr
            64 26 -29 -97 4 hvcurveto
            -330 -645 rlineto
            623 vlineto
            -69 callgsubr
            -63 -27 27 88 -4 hvcurveto
            329 648 rlineto
            -616 -37 callsubr
            680 147 callsubr
            endchar
          </CharString>
          <CharString index="38">
            1937 rmoveto
            -156 -28 -166 -51 -90 -46 -106 46 -199 51 -188 28 -11 -30 rcurveline
            181 -86 167 -138 97 -129 rrcurveto
            37 hlineto
            311 callsubr
            rrcurveto
            return
          </CharString>
          <CharString index="39">
            1733 rmoveto
            -156 -29 -166 -51 -90 -45 -106 45 -199 51 -188 29 -11 -31 rcurveline
            181 -86 167 -137 97 -129 rrcurveto
            37 hlineto
            303 callgsubr
            rrcurveto
            return
          </CharString>
          <CharString index="40">
            168 66 -170 -151 18 hvcurveto
            41 hlineto
            186 2 103 6 80 vhcurveto
            -41 hlineto
            -45 -7 -18 -21 -26 hhcurveto
            -11 -12 4 8 -14 hvcurveto
            23 -41 -98 33 -119 hhcurveto
            return
          </CharString>
          <CharString index="41">
            41 84 33 6 22 hhcurveto
            43 19 -70 -47 2 hvcurveto
            41 406 hlineto
            151 14 18 70 7 268 callgsubr
            -5 -115 -2 -131 -123 -176 2 -92 hflex1
            -41 vlineto
            172 -7 35 -32 -199 vvcurveto
            -205 vlineto
            return
          </CharString>
          <CharString index="42">
            86 72 61 76 71 29 -43 -86 vhcurveto
            -666 -43 callsubr
            -83 -2 callgsubr
            555 vlineto
            146 callgsubr
            return
          </CharString>
          <CharString index="43">
            vhcurveto
            -41 vlineto
            return
          </CharString>
          <CharString index="44">
            -78 -70 -107 -112 72 -64 108 64 51 23 41 35 hvcurveto
            3 -15 2 -15 -15 vvcurveto
            -22 -4 -23 -7 -23 vhcurveto
            -21 -67 -61 -68 -72 -33 18 -37 rcurveline
            return
          </CharString>
          <CharString index="45">
            1384 1450 -55 callgsubr
            return
          </CharString>
          <CharString index="46">
            -45 callgsubr
            -106 callgsubr
            return
          </CharString>
          <CharString index="47">
            194 -27 12 -59 -274 vvcurveto
            -484 vlineto
            -837 885 206 callgsubr
            -68 19 callgsubr
            -873 vlineto
            -231 -21 -61 316 callgsubr
            return
          </CharString>
          <CharString index="48">
            -102 -117 -8 -137 156 callsubr
            return
          </CharString>
          <CharString index="49">
            1686 rmoveto
            48 23 29 48 49 vvcurveto
            18 -4 18 -8 18 vhcurveto
            53 -26 -53 24 -50 hhcurveto
            -23 -22 -5 -9 -18 hvcurveto
            -101 -47 -24 -102 -199 -168 14 -25 rcurveline
            240 74 102 -19 95 50 rrcurveto
            return
          </CharString>
          <CharString index="50">
            1493 rmoveto
            48 24 30 48 49 vvcurveto
            18 -4 18 -8 17 vhcurveto
            54 -26 -53 23 -51 hhcurveto
            -22 -22 -4 -9 -18 hvcurveto
            -101 -48 -24 -102 -199 -168 14 -24 rcurveline
            240 73 102 -18 94 49 rrcurveto
            return
          </CharString>
          <CharString index="51">
            32 callsubr
            -676 vlineto
            -273 0 -108 -37 -62 vhcurveto
            -43 -27 -55 -22 -56 hhcurveto
            -16 -20 2 2 -19 hvcurveto
            192 callgsubr
            -112 282 callgsubr
            39 -57 65 -29 vhcurveto
            -35 78 78 -6 72 hhcurveto
            200 119 43 59 68 hvcurveto
            106 93 39 112 242 vvcurveto
            endchar
          </CharString>
          <CharString index="52">
            6 -23 -58 callgsubr
            return
          </CharString>
          <CharString index="53">
            -30 callsubr
            66 4 207 2 123 116 222 -2 75 88 callgsubr
            960 19 vlineto
            176 102 -119 -325 78 hvcurveto
            47 hlineto
            -4 43 -2 71 74 247 callgsubr
            11 121 vhcurveto
            return
          </CharString>
          <CharString index="54">
            71 callgsubr
            121 callsubr
            return
          </CharString>
          <CharString index="55">
            189 callsubr
            141 82 60 116 117 -82 60 -141 hvcurveto
            return
          </CharString>
          <CharString index="56">
            rmoveto
            -170 -86 -78 -86 -47 hvcurveto
            -29 callsubr
            hintmask 11010000
            70 -6 39 -64 -80 vvcurveto
            -157 -142 -97 -225 -32 vhcurveto
            -35 vlineto
            276 20 318 80 205 vvcurveto
            115 -120 74 -148 -10 -11 0 -1 -10 vhcurveto
            hintmask 11100000
            172 29 100 70 96 vvcurveto
            94 -112 53 -140 vhcurveto
            endchar
          </CharString>
          <CharString index="57">
            28 0 43 1161 41 -41 43 hstemhm
            -2 1393 hintmask 10110000
            832 757 rmoveto
            223 259 69 80 90 75 82 33 rlinecurve
            hintmask 11010000
            41 vlineto
            -45 -4 -69 -2 -84 -66 216 callgsubr
            hintmask 10110000
            -41 vlineto
            89 -8 49 -48 -71 vvcurveto
            -60 -34 -77 -73 -84 vhcurveto
            -52 -60 -239 339 rlineto
            -10 14 -5 11 10 vvcurveto
            26 42 8 86 vhcurveto
            43 vlineto
            -68 -2 -147 -6 -135 -127 -140 6 -63 -9 callsubr
            53 -4 21 -20 53 -78 400 -567 rcurveline
            -214 -248 -71 -84 -123 -107 -105 -55 rlinecurve
            -41 vlineto
            45 4 70 2 84 65 211 279 callsubr
            -118 9 -86 49 89 vvcurveto
            51 27 63 65 77 vhcurveto
            100 116 270 -382 rlineto
            11 -16 5 -12 -9 vvcurveto
            -27 -43 -6 -85 vhcurveto
            -43 vlineto
            67 2 148 6 135 127 139 -6 64 166 callgsubr
            -54 4 -22 23 -51 75 rrcurveto
            endchar
          </CharString>
          <CharString index="58">
            -5 callsubr
            -66 -176 -115 -135 hhcurveto
            -68 hlineto
            return
          </CharString>
          <CharString index="59">
            94 84 80 98 94 -84 84 -94 -39 callsubr
            hvcurveto
            return
          </CharString>
          <CharString index="60">
            -212 0 43 977 43 hstemhm
            -2 1141 -482 410 hintmask 11100000
            697 649 rmoveto
            177 205 rlineto
            hintmask 11010000
            68 82 64 59 61 27 rrcurveto
            41 vlineto
            -37 -4 -41 -2 -59 -72 -117 140 callsubr
            84 -7 46 -49 -69 vvcurveto
            -50 -24 -61 -52 -63 vhcurveto
            -35 -42 -178 269 rlineto
            -8 12 -3 11 10 vvcurveto
            23 23 14 39 vhcurveto
            43 vlineto
            -47 -2 -101 -6 -94 -119 -131 6 -59 -9 callsubr
            41 -8 27 -35 38 -59 313 -471 rcurveline
            -206 -238 -68 -82 -55 -51 -70 -35 rlinecurve
            -41 vlineto
            37 4 41 2 60 71 179 244 callsubr
            -88 7 -58 65 89 vvcurveto
            57 24 66 53 68 vhcurveto
            18 23 201 -303 rlineto
            8 -12 3 -11 -10 vvcurveto
            -23 -23 -14 -39 vhcurveto
            -43 vlineto
            55 2 117 6 110 103 114 74 callsubr
            -45 8 -37 60 -25 34 rrcurveto
            endchar
          </CharString>
          <CharString index="61">
            -106 -137 -168 20 -23 rcurveline
            195 76 106 6 72 47 rrcurveto
            42 28 23 40 43 vvcurveto
            24 -7 24 -15 23 vhcurveto
            42 -28 -45 21 -45 hhcurveto
            -28 -27 -8 -16 -24 hvcurveto
            return
          </CharString>
          <CharString index="62">
            110 0 47 688 35 639 35 92 callsubr
            254 422 -323 430 hintmask 11110100
            821 764 rmoveto
            hintmask 11111000
            324 41 149 176 145 vvcurveto
            189 -182 133 -373 114 callgsubr
            141 2 138 178 129 -6 65 hflex1
            hintmask 11110100
            381 234 123 274 166 -158 176 -422 21 hvcurveto
            -92 649 rmoveto
            hintmask 11111000
            105 38 -104 -201 -178 -38 -156 -160 hvcurveto
            -56 463 hlineto
            hintmask 11110100
            141 19 35 92 vhcurveto
            23 -1362 rmoveto
            -111 -23 27 143 hvcurveto
            518 29 vlineto
            232 92 -121 -208 -230 -66 -129 -153 hvcurveto
            endchar
          </CharString>
          <CharString index="63">
            1679 rmoveto
            -29 -24 -13 -34 -35 vvcurveto
            -32 11 -34 23 -27 vhcurveto
            67 -82 101 -22 192 -162 9 callsubr
            return
          </CharString>
          <CharString index="64">
            vlineto
            -114 -24 -33 -70 -65 callgsubr
            return
          </CharString>
          <CharString index="65">
            vstem
            2294 1245 rmoveto
            294 callsubr
            -119 -127 2 -76 hflex1
            -41 vlineto
            107 -6 18 141 callsubr
            -811 212 callgsubr
            -47 hlineto
            -123 -43 163 callgsubr
            19 20 106 6 vhcurveto
            41 vlineto
            -69 -4 -123 -2 -131 -119 -127 2 -76 hflex1
            -41 vlineto
            107 -6 18 141 callsubr
            -811 212 callgsubr
            -47 hlineto
            -139 -27 163 callgsubr
            18 20 107 6 vhcurveto
            41 vlineto
            -72 -4 -118 -2 -111 177 callgsubr
            -23 24 callgsubr
            74 4 131 2 139 144 158 -6 88 hflex1
            92 159 6 152 131 170 70 hflex
            return
          </CharString>
          <CharString index="66">
            vlineto
            -53 callsubr
            return
          </CharString>
          <CharString index="67">
            1686 rmoveto
            94 -50 102 19 240 -74 14 25 rcurveline
            -198 168 -25 102 -100 47 rrcurveto
            9 -19 -22 5 -22 hhcurveto
            -51 -53 -24 -53 -26 hvcurveto
            -8 -18 -4 -18 -18 vvcurveto
            -49 30 -47 48 -24 vhcurveto
            return
          </CharString>
          <CharString index="68">
            186 callgsubr
            -98 80 -80 98 return
          </CharString>
          <CharString index="69">
            -90 -25 -78 -78 -102 vvcurveto
            -109 68 -76 120 115 82 87 112 94 -49 76 -74 43 vhcurveto
            return
          </CharString>
          <CharString index="70">
            184 callgsubr
            -69 -15 callsubr
            return
          </CharString>
          <CharString index="71">
            172 callsubr
            289 369 289 368 vstem
            1956 1061 rmoveto
            20 callgsubr
            -100 hlineto
            -70 -24 -42 callgsubr
            680 vlineto
            115 24 246 callgsubr
            -55 -2 -125 -6 -107 -6 callgsubr
            -123 -6 -110 -111 -123 6 -55 -9 callsubr
            84 31 129 callsubr
            -680 -34 callsubr
            138 6 100 117 69 -8 152 hflex1
            151 return
          </CharString>
          <CharString index="72">
            rmoveto
            -104 -86 -33 -40 -55 hvcurveto
            20 195 rlineto
            336 hlineto
            29 24 0 -6 25 hvcurveto
            76 6 76 23 104 vhcurveto
            -35 6 rlineto
            -45 -19 -12 -24 -65 hhcurveto
            -250 hlineto
            -29 -29 2 4 -20 hvcurveto
            -43 -414 33 -14 rlineto
            31 34 58 26 61 hhcurveto
            90 33 -47 -78 -166 -147 -86 -199 -36 hvcurveto
            -35 vlineto
            278 22 308 105 204 vvcurveto
            95 -84 78 -181 vhcurveto
            endchar
          </CharString>
          <CharString index="73">
            -89 callgsubr
            59 2 return
          </CharString>
          <CharString index="74">
            rmoveto
            -189 -6 -262 0 -186 -181 -256 0 -182 hflex1
            10 -121 4 -123 -59 vvcurveto
            -74 -2 -71 -4 -43 vhcurveto
            47 hlineto
            325 78 103 119 176 hhcurveto
            18 return
          </CharString>
          <CharString index="75">
            118 138 25 callgsubr
            return
          </CharString>
          <CharString index="76">
            rmoveto
            -467 -327 -308 -458 -467 256 -275 514 117 122 47 52 107 hvcurveto
            hintmask 0111011010000000
            -66 callsubr
            hintmask 1011011010000000
            -49 -14 -33 -29 -20 vhcurveto
            -17 -25 -32 -8 -44 hhcurveto
            -198 -131 217 492 307 90 387 315 72 82 -22 -39 57 hvcurveto
            hintmask 1010111100000000
            135 -92 35 -127 19 -197 rrcurveto
            47 hlineto
            258 2 145 6 109 vhcurveto
            -47 hlineto
            -84 -8 -15 -39 -28 hhcurveto
            -13 -14 6 13 -14 hvcurveto
            hintmask 1011011100000000
            73 -92 -115 60 -191 hhcurveto
            endchar
          </CharString>
          <CharString index="77">
            -33 callsubr
            -960 hlineto
            23 callsubr
            return
          </CharString>
          <CharString index="78">
            31 -16 rlineto
            59 37 63 39 70 hhcurveto
            80 43 -47 -61 -41 -19 -70 -75 -39 hvcurveto
            -50 2 -41 -2 -28 vvcurveto
            -15 11 -10 20 25 20 14 15 31 vhcurveto
            return
          </CharString>
          <CharString index="79">
            -79 -371 43 299 62 952 107 -74 37 28 -20 hstemhm
            218 callgsubr
            285 383 hintmask 00000000
            hintmask 11100110
            831 1092 rmoveto
            -139 -108 -50 -104 -64 hvcurveto
            hintmask 11001110
            145 vlineto
            hintmask 11011110
            -20 -59 callsubr
            -1018 vlineto
            -115 -31 -33 -84 vhcurveto
            -43 vlineto
            55 2 117 7 110 152 150 -7 75 166 callgsubr
            -110 -66 267 callsubr
            170 vlineto
            -29 52 69 284 callsubr
            hvcurveto
            hintmask 11100110
            348 -154 166 -203 vhcurveto
            -239 -1059 rmoveto
            -24 -27 4 13 -21 hvcurveto
            788 vlineto
            86 72 61 76 75 62 -92 -363 -331 -62 -166 -151 vhcurveto
            endchar
          </CharString>
          <CharString index="80">
            1614 rmoveto
            -51 -63 -113 -64 -197 hhcurveto
            -196 -113 64 51 -63 hvcurveto
            -35 -19 rlineto
            -157 45 112 -183 250 hhcurveto
            250 113 183 157 45 hvcurveto
            return
          </CharString>
          <CharString index="81">
            -117 -116 135 callgsubr
            return
          </CharString>
          <CharString index="82">
            -59 -45 38 107 100 39 72 61 59 hvcurveto
            29 29 34 33 17 28 rrcurveto
            endchar
          </CharString>
          <CharString index="83">
            -5 callgsubr
            -23 24 callgsubr
            return
          </CharString>
          <CharString index="84">
            1917 rmoveto
            88 callsubr
            89 callsubr
            hvcurveto
            528 hmoveto
            88 callsubr
            89 callsubr
            hvcurveto
            return
          </CharString>
          <CharString index="85">
            1581 rmoveto
            -99 -80 -84 -94 -98 80 -80 99 3 callsubr
            21 callsubr
            return
          </CharString>
          <CharString index="86">
            -97 callgsubr
            238 6 125 callsubr
            137 193 0 139 hflex1
            return
          </CharString>
          <CharString index="87">
            143 49 -137 180 hhcurveto
            111 104 96 237 47 hvcurveto
            -28 15 rlineto
            -78 -47 -54 -31 -57 -143 -49 135 -179 hhcurveto
            return
          </CharString>
          <CharString index="88">
            43 vlineto
            -84 -2 callgsubr
            return
          </CharString>
          <CharString index="89">
            147 160 -121 -385 96 hvcurveto
            47 hlineto
            -4 35 -2 55 57 vvcurveto
            80 4 164 10 162 vhcurveto
            return
          </CharString>
          <CharString index="90">
            rmoveto
            hintmask 0001101110000000
            -20 -102 -117 198 callsubr
            29 -57 -123 hvcurveto
            -615 vlineto
            -86 -72 -61 -76 -71 -29 43 86 vhcurveto
            hintmask 0001001110000000
            878 vlineto
            hintmask 0001101110000000
            -20 -103 -116 -8 -137 hhcurveto
            hintmask 0001010110000000
            -41 -43 2 4 -43 hvcurveto
            hintmask 1000101110000000
            -79 callgsubr
            hintmask 0100001110000000
            -148 vlineto
            hintmask 0001001110000000
            14 callsubr
            hintmask 0010001110000000
            67 callsubr
          </CharString>
          <CharString index="91">
            107 -45 198 -51 189 -29 10 31 rcurveline
            -61 callgsubr
            return
          </CharString>
          <CharString index="92">
            -65 callgsubr
            -84 -30 -42 callgsubr
            return
          </CharString>
          <CharString index="93">
            6 callgsubr
            100 -4 70 -42 -110 vvcurveto
            -71 -28 -97 -66 -133 vhcurveto
            -133 -266 -324 551 rlineto
            -18 39 -7 31 25 vvcurveto
            53 37 20 43 4 vhcurveto
            41 vlineto
            -61 -4 -195 -2 -98 -92 -184 2 -56 hflex1
            -41 vlineto
            47 -8 50 -41 49 -82 598 -1018 rcurveline
            -43 -88 rlineto
            -102 -49 -58 -58 -84 hhcurveto
            -26 -23 2 9 -10 hvcurveto
            106 28 84 64 102 vvcurveto
            96 -88 56 -135 -125 -104 -76 -119 -111 102 -92 180 72 68 17 43 43 vhcurveto
            28 28 27 37 35 72 96 194 rcurveline
            383 775 90 161 61 80 246 callsubr
            return
          </CharString>
          <CharString index="94">
            rmoveto
            -385 -303 -266 -398 -407 293 -232 401 hvcurveto
            hintmask 10101101
            172 111 62 71 86 hvcurveto
            13 16 13 7 12 hhcurveto
            hintmask 01101101
            28 16 -41 -83 7 hvcurveto
            47 hlineto
            -6 96 -2 127 228 vvcurveto
            -47 hlineto
            -21 -146 -16 -67 -58 -70 rrcurveto
            hintmask 10101110
            -84 -69 -103 -51 -100 hhcurveto
            -207 -164 205 380 371 140 223 217 100 92 -55 -80 72 hvcurveto
            57 -63 17 -49 28 -150 rrcurveto
            47 hlineto
            hintmask 10011110
            217 2 121 7 92 vhcurveto
            -48 hlineto
            -83 -7 -16 -41 -29 hhcurveto
            -11 -13 7 13 -16 hvcurveto
            hintmask 10101110
            69 -82 -86 64 -192 hhcurveto
            endchar
          </CharString>
          <CharString index="95">
            1731 rmoveto
            9 -19 -21 4 -23 hhcurveto
            -51 -53 -23 -54 -26 hvcurveto
            -8 -17 -4 -18 -18 vvcurveto
            -49 30 -48 48 -24 vhcurveto
            94 -49 102 18 240 -73 14 24 rcurveline
            -198 168 -25 102 -100 48 rrcurveto
            return
          </CharString>
          <CharString index="96">
            -168 25 112 -54 179 hhcurveto
            125 98 27 84 84 hvcurveto
            -799 1327 rmoveto
            145 52 -125 -215 -188 -43 -152 -209 hvcurveto
            -56 504 hlineto
            141 19 35 92 vhcurveto
            return
          </CharString>
          <CharString index="97">
            rmoveto
            -22 -3 -23 -1 -23 -23 -22 1 -23 hflex1
            -419 -964 rlineto
            return
          </CharString>
          <CharString index="98">
            hflex1
            -43 vlineto
            return
          </CharString>
          <CharString index="99">
            1245 rmoveto
            -34 callgsubr
            -29 -24 -13 -34 -35 vvcurveto
            -32 11 -34 23 -27 vhcurveto
            67 -82 101 -22 192 -162 rrcurveto
            return
          </CharString>
          <CharString index="100">
            203 415 return
          </CharString>
          <CharString index="101">
            110 callsubr
            171 callgsubr
            248 callgsubr
            -69 -25 33 114 hvcurveto
            648 vlineto
            86 72 61 76 71 29 -43 -86 vhcurveto
            -666 -37 callsubr
            555 vlineto
            176 callsubr
            endchar
          </CharString>
          <CharString index="102">
            74 2 65 4 49 vhcurveto
            -47 hlineto
            -370 return
          </CharString>
          <CharString index="103">
            -102 25 88 -72 184 hhcurveto
            150 82 45 70 69 hvcurveto
            -772 1118 rmoveto
            148 49 -108 -191 -166 -39 -133 -193 hvcurveto
            -55 422 hlineto
            141 14 35 76 vhcurveto
            return
          </CharString>
          <CharString index="104">
            -58 -29 107 -80 -21 29 37 -22 -21 1020 46 callsubr
            return
          </CharString>
          <CharString index="105">
            rmoveto
            -166 -145 -151 -234 -21 hvcurveto
            37 -6 rlineto
            117 45 82 43 99 hhcurveto
            hintmask 10100000
            221 147 -199 234 hhcurveto
            166 145 152 233 20 hvcurveto
            -36 7 rlineto
            -117 -45 -82 -43 -99 hhcurveto
            hintmask 01100000
            -221 -147 198 -234 hhcurveto
            endchar
          </CharString>
          <CharString index="106">
            205 395 return
          </CharString>
          <CharString index="107">
            -111 -125 75 289 25 0 25 2 24 hvcurveto
            return
          </CharString>
          <CharString index="108">
            207 callsubr
            107 168 -6 73 hflex1
            496 287 254 385 393 -248 213 -516 hvcurveto
            return
          </CharString>
          <CharString index="109">
            -297 -230 -168 -394 return
          </CharString>
          <CharString index="110">
            -52 callgsubr
            hvcurveto
            return
          </CharString>
          <CharString index="111">
            rmoveto
            -61 callsubr
            return
          </CharString>
          <CharString index="112">
            -124 59 callsubr
            return
          </CharString>
          <CharString index="113">
            -76 -98 2 -56 hflex1
            -41 vlineto
            return
          </CharString>
          <CharString index="114">
            1673 rmoveto
            16 -25 -28 8 -26 hhcurveto
            -48 -45 -24 -41 -25 hvcurveto
            -45 -76 12 -110 -59 -209 27 -12 rcurveline
            149 145 96 47 47 72 rrcurveto
            17 26 9 29 27 vvcurveto
            39 -19 37 -37 26 vhcurveto
            362 hmoveto
            16 -25 -27 8 -27 hhcurveto
            return
          </CharString>
          <CharString index="115">
            -53 -139 -4 -137 hhcurveto
            -131 -144 2 4 -78 146 callsubr
            -54 callgsubr
            -1016 -97 callgsubr
            return
          </CharString>
          <CharString index="116">
            23 18 rcurveline
            -34 callgsubr
            return
          </CharString>
          <CharString index="117">
            -79 -4 -154 -2 -80 -137 -43 6 -143 hflex1
            -119 0 10 -4 -53 -60 -80 0 -51 hflex1
            -41 vlineto
            131 -5 37 -22 -103 vvcurveto
            -14 -1 -15 -1 -17 vhcurveto
            -450 -31 -36 -568 -306 hhcurveto
            -32 -17 6 11 -10 hvcurveto
            121 20 92 90 115 vvcurveto
            102 -72 56 -106 -131 -103 -84 -127 -131 107 -97 147 385 0 658 399 37 vhcurveto
            152 15 4 24 88 hhcurveto
            26 hlineto
            88 17 -24 -152 hvcurveto
            -811 vlineto
            return
          </CharString>
          <CharString index="118">
            1765 rmoveto
            -131 -72 -59 -26 callsubr
            129 73 60 116 117 -73 59 -129 hvcurveto
            return
          </CharString>
          <CharString index="119">
            0 43 975 47 callsubr
            -6 callgsubr
            -121 -6 -114 -107 -125 6 -55 -9 callsubr
            84 31 129 callsubr
            -680 vlineto
            -67 callgsubr
            -43 vlineto
            return
          </CharString>
          <CharString index="120">
            82 54 72 67 29 vhcurveto
            10 21 22 4 23 hhcurveto
            -62 -41 -43 -57 -93 vvcurveto
            -88 62 -59 121 112 76 78 123 94 -41 113 -147 vhcurveto
            return
          </CharString>
          <CharString index="121">
            21 102 117 8 137 hhcurveto
            41 43 -2 -4 43 hvcurveto
            return
          </CharString>
          <CharString index="122">
            -77 -29 62 -26 -21 1437 56 -21 -20 hstemhm
            109 47 -45 378 285 408 -127 47 hintmask 10101001
            return
          </CharString>
          <CharString index="123">
            1364 rmoveto
            94 -45 168 -49 164 -29 16 29 rcurveline
            -156 102 -143 170 -84 162 rrcurveto
            -37 hlineto
            -88 -164 -141 -170 -154 -100 17 -29 rcurveline
            131 29 135 49 78 45 rrcurveto
            return
          </CharString>
          <CharString index="124">
            rmoveto
            458 1040 rlineto
            hintmask 10101100
            -6 -137 -153 -4 -144 hhcurveto
            hintmask 01011100
            298 callgsubr
            6 -127 hvcurveto
            6 -92 2 -121 -217 vvcurveto
            41 hlineto
            303 23 165 88 154 hhcurveto
            41 hlineto
            -459 -1040 rlineto
            hintmask 10011100
            6 137 154 4 143 hhcurveto
            136 139 -2 -6 127 hvcurveto
            -6 92 -2 121 217 vvcurveto
            -41 hlineto
            -303 -23 -178 -88 -154 hhcurveto
            endchar
          </CharString>
          <CharString index="125">
            14 callgsubr
            44 callgsubr
          </CharString>
          <CharString index="126">
            -656 0 59 callgsubr
            return
          </CharString>
          <CharString index="127">
            193 callsubr
            43 vlineto
            -55 -2 -123 -6 -111 -110 -140 6 -59 176 callgsubr
            127 6 111 110 136 -6 59 hflex1
            -19 callsubr
            335 vlineto
            1 10 10 0 9 hhcurveto
            65 47 -24 -33 29 hvcurveto
            60 -66 35 -143 10 -47 rrcurveto
            return
          </CharString>
          <CharString index="128">
            487 hmoveto
            -28 callgsubr
            return
          </CharString>
          <CharString index="129">
            362 -29 37 1434 37 hstem
            294 callgsubr
            vstem
            return
          </CharString>
          <CharString index="130">
            -166 -35 -25 101 callsubr
            return
          </CharString>
          <CharString index="131">
            rmoveto
            -13 -59 -53 -11 -90 hhcurveto
            -17 -19 0 1 -20 hvcurveto
            -43 vlineto
            34 7 -29 -53 -37 -9 -75 -32 -185 hvcurveto
            28 -8 rlineto
            146 176 94 113 80 vvcurveto
            24 -4 45 -6 15 vhcurveto
            return
          </CharString>
          <CharString index="132">
            -41 vlineto
            35 -4 55 -39 57 -86 554 -813 rcurveline
            -50 -90 rlineto
            -102 -57 -47 -58 -93 hhcurveto
            -18 -25 2 9 -10 hvcurveto
            109 28 82 68 94 vvcurveto
            100 -90 56 -123 -152 -88 -86 -105 -115 102 -92 179 73 64 19 43 43 vhcurveto
            29 28 26 39 39 68 62 108 rcurveline
            14 25 35 61 321 570 90 162 64 80 63 30 rlinecurve
            return
          </CharString>
          <CharString index="133">
            rmoveto
            334 vlineto
            -64 -108 -115 -26 -146 hhcurveto
            -244 -155 -41 155 -694 vlineto
            -142 11 -84 59 145 callgsubr
            93 64 98 57 hvcurveto
            return
          </CharString>
          <CharString index="134">
            vlineto
            55 2 121 6 115 return
          </CharString>
          <CharString index="135">
            rmoveto
            -55 137 -13 102 -63 74 rrcurveto
            63 -55 -93 44 -145 hhcurveto
            -30 -33 -2 -4 -34 hvcurveto
            71 38 22 64 25 96 47 186 6 86 141 9 rrcurveto
            -86 -45 -33 -70 -64 vvcurveto
            -120 117 -43 82 104 78 67 121 115 -71 82 -162 -178 -31 -97 -192 -47 vhcurveto
            -40 -165 -29 -65 -163 -11 rrcurveto
            308 vlineto
            return
          </CharString>
          <CharString index="136">
            47 559 64 callgsubr
            return
          </CharString>
          <CharString index="137">
            1921 rmoveto
            -129 -121 -90 -223 -55 hvcurveto
            28 -15 rlineto
            78 60 65 33 74 hhcurveto
            return
          </CharString>
          <CharString index="138">
            1628 rmoveto
            -37 82 135 -30 172 hhcurveto
            170 135 30 127 callsubr
            -117 -82 -67 -88 -76 60 -51 88 -23 vhcurveto
            -22 -88 -109 -10 -80 hhcurveto
            -82 -108 10 20 -88 hvcurveto
            80 21 71 49 82 vvcurveto
            90 82 callsubr
            return
          </CharString>
          <CharString index="139">
            -43 vlineto
            -17 callgsubr
            return
          </CharString>
          <CharString index="140">
            -149 -96 155 217 -25 hvcurveto
            -41 hlineto
            return
          </CharString>
          <CharString index="141">
            1284 rmoveto
            -43 80 118 -27 150 hhcurveto
            147 119 27 43 80 hvcurveto
            61 33 58 61 78 vvcurveto
            105 -74 73 -104 -105 -74 -73 -105 -82 52 -59 75 -27 vhcurveto
            -22 -75 -93 -11 -67 hhcurveto
            -70 -92 11 20 -76 hvcurveto
            76 27 55 59 84 vvcurveto
            105 -78 73 -100 -108 -70 -73 -105 -78 53 -61 62 -33 vhcurveto
            return
          </CharString>
          <CharString index="142">
            vvcurveto
            -92 69 -53 133 144 191 callsubr
            -31 -59 133 callgsubr
            return
          </CharString>
          <CharString index="143">
            vvcurveto
            -92 69 -53 134 143 191 callsubr
            -30 -60 133 callgsubr
            return
          </CharString>
          <CharString index="144">
            161 callgsubr
            hstemhm
            -43 256 callgsubr
            1475 hintmask 11101000
            return
          </CharString>
          <CharString index="145">
            -73 244 callgsubr
            -135 -143 84 callsubr
            22 -54 callgsubr
            return
          </CharString>
          <CharString index="146">
            134 6 114 return
          </CharString>
          <CharString index="147">
            rmoveto
            -211 -168 -170 -211 -211 168 -168 211 211 170 168 211 211 -170 170 -211 hvcurveto
            endchar
          </CharString>
          <CharString index="148">
            -93 callgsubr
            66 4 return
          </CharString>
          <CharString index="149">
            -127 -129 112 -80 125 127 113 80 129 return
          </CharString>
          <CharString index="150">
            -43 vlineto
            63 callsubr
            return
          </CharString>
          <CharString index="151">
            811 -41 callsubr
            return
          </CharString>
          <CharString index="152">
            43 vlineto
            -70 108 callgsubr
            return
          </CharString>
          <CharString index="153">
            37 6 -20 42 -20 return
          </CharString>
          <CharString index="154">
            43 hstem
            126 callsubr
            289 369 vstem
            1298 172 callgsubr
            return
          </CharString>
          <CharString index="155">
            hstemhm
            45 365 -308 365 123 368 return
          </CharString>
          <CharString index="156">
            hstemhm
            166 395 387 420 -213 47 return
          </CharString>
          <CharString index="157">
            -207 -2 -114 -6 -88 vhcurveto
            41 hlineto
            return
          </CharString>
          <CharString index="158">
            1016 vlineto
            149 return
          </CharString>
          <CharString index="159">
            -10 113 -5 114 56 vvcurveto
            endchar
          </CharString>
          <CharString index="160">
            vhcurveto
            51 40 226 callgsubr
            25 318 callsubr
            18 -21 11 111 callsubr
            59 return
          </CharString>
          <CharString index="161">
            vlineto
            -21 -59 callsubr
            return
          </CharString>
          <CharString index="162">
            28 callgsubr
            -5 callsubr
            return
          </CharString>
          <CharString index="163">
            255 callsubr
            -72 46 callsubr
            194 callsubr
            return
          </CharString>
          <CharString index="164">
            -185 -385 35 297 340 149 37 582 37 return
          </CharString>
          <CharString index="165">
            -20 -102 -117 -8 -137 hhcurveto
            return
          </CharString>
          <CharString index="166">
            6 -21 -58 callgsubr
            return
          </CharString>
          <CharString index="167">
            51 -8 -18 48 hvcurveto
            -26 59 64 -3 78 139 callgsubr
            348 -153 166 -203 hvcurveto
            -215 -1080 rmoveto
            -30 -35 8 16 -31 hvcurveto
            802 vlineto
            86 71 61 76 76 61 -92 -363 -346 -61 -172 -127 vhcurveto
            endchar
          </CharString>
          <CharString index="168">
            hlineto
            176 168 -88 -291 53 hvcurveto
            47 hlineto
            -4 35 -2 45 57 vvcurveto
            56 4 114 return
          </CharString>
          <CharString index="169">
            -32 callgsubr
            107 112 70 callgsubr
            return
          </CharString>
          <CharString index="170">
            86 29 56 callgsubr
            return
          </CharString>
          <CharString index="171">
            0 65 callgsubr
            return
          </CharString>
          <CharString index="172">
            47 -39 -67 35 -125 hhcurveto
            return
          </CharString>
          <CharString index="173">
            238 callsubr
            -55 hflex1
            -41 vlineto
            return
          </CharString>
          <CharString index="174">
            43 vlineto
            -86 -29 57 123 hvcurveto
            endchar
          </CharString>
          <CharString index="175">
            -172 6 -35 25 166 vvcurveto
            return
          </CharString>
          <CharString index="176">
            -125 -112 -79 42 callsubr
            return
          </CharString>
          <CharString index="177">
            -34 0 120 callgsubr
            return
          </CharString>
          <CharString index="178">
            1087 rmoveto
            39 -172 119 -276 90 -109 -90 -108 -119 -275 -39 -172 rrcurveto
            hintmask 10110000
            29 -8 190 197 197 186 239 160 rlinecurve
            41 vlineto
            -239 160 -197 188 -190 197 rrcurveto
            return
          </CharString>
          <CharString index="179">
            1263 rmoveto
            38 -172 119 -276 90 -109 -90 -108 -119 -275 -38 -172 28 -8 rcurveline
            191 197 196 186 137 callgsubr
            188 -191 197 rrcurveto
            return
          </CharString>
          <CharString index="180">
            1249 rmoveto
            141 82 60 116 117 -82 60 -141 189 callsubr
            hvcurveto
            return
          </CharString>
          <CharString index="181">
            -6 52 166 callgsubr
            return
          </CharString>
          <CharString index="182">
            vvcurveto
            84 -22 72 -29 39 vhcurveto
            49 -32 -58 27 -72 hhcurveto
            return
          </CharString>
          <CharString index="183">
            47 -41 41 hstemhm
            -1 callsubr
            return
          </CharString>
          <CharString index="184">
            rmoveto
            -86 -19 41 135 hvcurveto
            606 56 vlineto
            211 41 -186 -221 -248 -52 -127 -151 hvcurveto
            endchar
          </CharString>
          <CharString index="185">
            41 1163 41 hstem
            -1 callsubr
            return
          </CharString>
          <CharString index="186">
            -4 -41 -64 -2 -53 hhcurveto
            endchar
          </CharString>
          <CharString index="187">
            -94 -72 -65 -101 -117 80 -71 72 -183 hvcurveto
            29 hlineto
            71 193 80 63 117 vvcurveto
            101 -71 63 -95 vhcurveto
            return
          </CharString>
          <CharString index="188">
            736 21 -21 1409 41 hstemhm
            -31 2116 -426 426 hintmask 11100000
            return
          </CharString>
          <CharString index="189">
            -86 65 -114 -119 -78 -69 -82 -74 61 -53 74 -33 vhcurveto
            return
          </CharString>
          <CharString index="190">
            41 9 -21 541 41 626 66 113 callsubr
            return
          </CharString>
          <CharString index="191">
            140 callsubr
            123 -6 return
          </CharString>
          <CharString index="192">
            180 callgsubr
            -20 callgsubr
            return
          </CharString>
          <CharString index="193">
            hstemhm
            41 352 -327 223 -207 377 return
          </CharString>
          <CharString index="194">
            141 callgsubr
            65 callsubr
            return
          </CharString>
          <CharString index="195">
            186 callgsubr
            -99 80 -79 98 return
          </CharString>
          <CharString index="196">
            94 84 79 99 94 -84 84 -94 return
          </CharString>
          <CharString index="197">
            1554 rmoveto
            311 callsubr
            -10 30 rcurveline
            -156 -28 -166 -51 -90 -46 -106 46 -199 51 -188 28 -11 -30 rcurveline
            181 -86 167 -138 97 -129 rrcurveto
            return
          </CharString>
          <CharString index="198">
            -70 -4 -123 -2 -131 return
          </CharString>
          <CharString index="199">
            hstemhm
            -7 callsubr
            return
          </CharString>
          <CharString index="200">
            37 hstem
            -7 callsubr
            537 430 vstem
            739 1450 149 callgsubr
            return
          </CharString>
          <CharString index="201">
            vstem
            2394 234 callgsubr
            -78 -4 -139 -2 -147 -119 -127 2 -76 hflex1
            -41 vlineto
            107 -6 18 -54 callgsubr
            -1016 212 callgsubr
            -68 hlineto
            -124 return
          </CharString>
          <CharString index="202">
            1255 rmoveto
            250 113 183 157 45 hvcurveto
            -35 19 rlineto
            -51 -63 -113 -64 -197 hhcurveto
            -196 -113 64 51 -63 hvcurveto
            -35 -19 rlineto
            -157 45 112 -183 250 hhcurveto
            return
          </CharString>
          <CharString index="203">
            2 -78 hflex1
            return
          </CharString>
          <CharString index="204">
            -54 callgsubr
            -1016 vlineto
            118 callgsubr
            -20 callgsubr
            return
          </CharString>
          <CharString index="205">
            -13 0 134 callgsubr
            43 hstemhm
            479 416 -18 426 hintmask 11100000
            return
          </CharString>
          <CharString index="206">
            -89 callgsubr
            2 return
          </CharString>
          <CharString index="207">
            317 callgsubr
            232 299 vstem
            return
          </CharString>
          <CharString index="208">
            -172 -84 callsubr
            return
          </CharString>
          <CharString index="209">
            -121 -303 72 hvcurveto
            47 hlineto
            -4 35 -2 55 57 vvcurveto
            64 4 127 10 129 vhcurveto
            endchar
          </CharString>
          <CharString index="210">
            158 callgsubr
            1602 1245 rmoveto
            91 callsubr
            -135 -144 84 callsubr
            23 141 callsubr
            return
          </CharString>
          <CharString index="211">
            rmoveto
            1 -7 -9 0 -12 -60 -119 -7 -116 hhcurveto
            -135 -144 2 4 -84 hvcurveto
            -41 vlineto
            return
          </CharString>
          <CharString index="212">
            vvcurveto
            -92 70 -53 133 143 91 41 98 79 vhcurveto
            return
          </CharString>
          <CharString index="213">
            78 35 62 53 72 vvcurveto
            84 -84 67 -115 return
          </CharString>
          <CharString index="214">
            -125 -27 211 callgsubr
            return
          </CharString>
          <CharString index="215">
            -143 -101 -23 -43 -84 hvcurveto
            return
          </CharString>
          <CharString index="216">
            -65 -170 -60 -60 -63 -10 return
          </CharString>
          <CharString index="217">
            rmoveto
            -21 -59 callsubr
            -1166 -32 callgsubr
            return
          </CharString>
          <CharString index="218">
            -28 -60 vvcurveto
            -1231 99 callsubr
            return
          </CharString>
          <CharString index="219">
            -45 -37 -45 -15 -28 hhcurveto
            -46 -16 21 53 hvcurveto
            848 201 41 return
          </CharString>
          <CharString index="220">
            -29 -20 217 callsubr
            return
          </CharString>
          <CharString index="221">
            89 -8 -21 29 41 524 41 598 39 hstemhm
            -1 callsubr
            287 409 hintmask 01111100
            return
          </CharString>
          <CharString index="222">
            167 216 callsubr
            hstemhm
            61 400 -254 47 797 267 callgsubr
            return
          </CharString>
          <CharString index="223">
            50 32 -96 -238 -238 -32 -96 -50 -49 -32 96 238 238 32 96 49 hvcurveto
            return
          </CharString>
          <CharString index="224">
            hflex1
            122 callgsubr
            return
          </CharString>
          <CharString index="225">
            -249 -385 37 1368 43 return
          </CharString>
          <CharString index="226">
            -245 7 -21 1065 41 return
          </CharString>
          <CharString index="227">
            141 2 140 return
          </CharString>
          <CharString index="228">
            124 6 vhcurveto
            return
          </CharString>
          <CharString index="229">
            -21 1056 50 hstemhm
            88 41 -41 350 return
          </CharString>
          <CharString index="230">
            131 6 135 hhcurveto
            127 return
          </CharString>
          <CharString index="231">
            263 callsubr
            -54 -88 -86 -94 54 110 107 94 59 86 hvcurveto
            return
          </CharString>
          <CharString index="232">
            332 0 147 return
          </CharString>
          <CharString index="233">
            158 368 return
          </CharString>
          <CharString index="234">
            37 82 hvcurveto
            106 callsubr
            return
          </CharString>
          <CharString index="235">
            -511 64 callsubr
            vstem
            return
          </CharString>
          <CharString index="236">
            -33 -115 hvcurveto
            return
          </CharString>
          <CharString index="237">
            227 callsubr
            -113 -121 -79 -61 -97 -165 215 -27 116 201 119 43 59 67 vhcurveto
            107 93 39 112 242 vvcurveto
            return
          </CharString>
          <CharString index="238">
            -550 -385 41 1548 41 hstem
            -332 385 142 395 vstem
            return
          </CharString>
          <CharString index="239">
            -365 0 31 -18 -21 1038 31 -31 41 return
          </CharString>
          <CharString index="240">
            0 133 hflex1
            return
          </CharString>
          <CharString index="241">
            145 callsubr
            endchar
          </CharString>
          <CharString index="242">
            39 -129 -121 22 hvcurveto
            47 hlineto
            -10 145 -2 62 63 28 -1 28 35 vvcurveto
            44 1 54 6 81 vhcurveto
            -47 hlineto
            -90 -22 -33 -159 return
          </CharString>
          <CharString index="243">
            -32 callsubr
            5 callsubr
            return
          </CharString>
          <CharString index="244">
            -683 -385 41 1364 46 callsubr
            return
          </CharString>
          <CharString index="245">
            1677 rmoveto
            52 -885 -52 vlineto
            return
          </CharString>
          <CharString index="246">
            203 callsubr
            -20 return
          </CharString>
          <CharString index="247">
            2 -84 hflex1
            -41 vlineto
            return
          </CharString>
          <CharString index="248">
            -20 -150 vvcurveto
            return
          </CharString>
          <CharString index="249">
            -8 rcurveline
            166 164 172 162 207 135 rrcurveto
            41 vlineto
            -207 135 -172 164 -166 164 rrcurveto
            endchar
          </CharString>
          <CharString index="250">
            -41 callsubr
            endchar
          </CharString>
          <CharString index="251">
            407 168 133 254 205 -135 147 -506 hvcurveto
            return
          </CharString>
          <CharString index="252">
            33 -55 -96 29 -119 hhcurveto
            return
          </CharString>
          <CharString index="253">
            hvcurveto
            -41 vlineto
            -76 callgsubr
            return
          </CharString>
          <CharString index="254">
            vlineto
            165 callsubr
            return
          </CharString>
          <CharString index="255">
            133 6 115 return
          </CharString>
          <CharString index="256">
            162 callgsubr
            hintmask 0001001111000000
            return
          </CharString>
          <CharString index="257">
            45 hstem
            35 233 264 234 vstem
            410 return
          </CharString>
          <CharString index="258">
            70 24 129 callsubr
            return
          </CharString>
          <CharString index="259">
            33 -908 rmoveto
            -26 -25 -22 -8 -29 hhcurveto
            -25 callsubr
          </CharString>
          <CharString index="260">
            -268 hlineto
            268 289 rlineto
            endchar
          </CharString>
          <CharString index="261">
            -6 -31 -77 -2 -49 hhcurveto
            endchar
          </CharString>
          <CharString index="262">
            -4 -41 -63 -2 -54 hhcurveto
            endchar
          </CharString>
          <CharString index="263">
            204 callgsubr
            32 callsubr
            return
          </CharString>
          <CharString index="264">
            45 452 58 hstem
            49 234 264 233 vstem
            500 return
          </CharString>
          <CharString index="265">
            -20 -140 -120 -4 -244 hhcurveto
            -186 return
          </CharString>
          <CharString index="266">
            146 callsubr
            -18 -152 vvcurveto
            return
          </CharString>
          <CharString index="267">
            1407 rmoveto
            51 -721 -51 vlineto
            return
          </CharString>
          <CharString index="268">
            hstem
            29 385 288 373 vstem
            return
          </CharString>
          <CharString index="269">
            47 559 280 callsubr
            return
          </CharString>
          <CharString index="270">
            41 1163 41 hstem
            207 47 return
          </CharString>
          <CharString index="271">
            246 callgsubr
            -56 -2 return
          </CharString>
          <CharString index="272">
            115 30 33 84 vhcurveto
            return
          </CharString>
          <CharString index="273">
            -4 -64 callsubr
            return
          </CharString>
          <CharString index="274">
            745 rmoveto
            176 callsubr
            return
          </CharString>
          <CharString index="275">
            rmoveto
            -63 -15 10 66 hvcurveto
            452 6 vlineto
            193 72 -73 -195 -133 -37 -127 -156 hvcurveto
            endchar
          </CharString>
          <CharString index="276">
            10 -129 4 -127 -64 vvcurveto
            -57 -2 -55 -4 -35 vhcurveto
            47 hlineto
            303 72 121 121 80 hhcurveto
            return
          </CharString>
          <CharString index="277">
            135 -219 hhcurveto
            return
          </CharString>
          <CharString index="278">
            47 hstem
            508 416 405 41 vstem
            return
          </CharString>
          <CharString index="279">
            215 callsubr
            126 callsubr
            return
          </CharString>
          <CharString index="280">
            -38 172 -119 275 -90 108 return
          </CharString>
          <CharString index="281">
            0 41 1163 41 return
          </CharString>
          <CharString index="282">
            37 hstem
            218 callgsubr
            return
          </CharString>
          <CharString index="283">
            67 callgsubr
            -148 -112 -45 -109 -66 hvcurveto
            return
          </CharString>
          <CharString index="284">
            hhcurveto
            78 127 9 53 115 hvcurveto
            65 28 39 58 65 vvcurveto
            97 -80 61 -120 vhcurveto
            endchar
          </CharString>
          <CharString index="285">
            -107 -78 -78 -47 101 198 199 39 106 78 hvcurveto
            return
          </CharString>
          <CharString index="286">
            -105 0 47 1157 292 callsubr
            return
          </CharString>
          <CharString index="287">
            222 callsubr
            -811 vlineto
            return
          </CharString>
          <CharString index="288">
            -511 216 callsubr
            return
          </CharString>
          <CharString index="289">
            -84 -4 -143 -2 -135 return
          </CharString>
          <CharString index="290">
            hhcurveto
            -12 -12 0 2 -13 hvcurveto
            return
          </CharString>
          <CharString index="291">
            72 1366 41 return
          </CharString>
          <CharString index="292">
            vhcurveto
            -119 -23 -56 -41 -43 vvcurveto
            -32 29 -9 27 57 64 33 78 53 vhcurveto
            14 39 37 6 return
          </CharString>
          <CharString index="293">
            rmoveto
            hintmask 01010000
            271 callgsubr
            hintmask 10010000
            -43 vlineto
            51 10 return
          </CharString>
          <CharString index="294" raw="1">
            611df8bf 07ce1d0b  
          </CharString>
          <CharString index="295">
            rmoveto
            852 -854 -852 vlineto
            41 813 rmoveto
            772 -774 -772 hlineto
            endchar
          </CharString>
          <CharString index="296">
            -144 -79 148 callgsubr
            79 -60 144 return
          </CharString>
          <CharString index="297">
            rmoveto
            -52 callgsubr
            return
          </CharString>
          <CharString index="298">
            90 41 98 80 vhcurveto
            -27 31 rlineto
            -27 return
          </CharString>
          <CharString index="299">
            357 131 356 return
          </CharString>
          <CharString index="300">
            115 31 33 84 vhcurveto
            return
          </CharString>
          <CharString index="301">
            hstemhm
            126 callsubr
            return
          </CharString>
          <CharString index="302">
            rmoveto
            -78 51 -240 -51 -239 51 -78 -51 78 -51 239 49 240 -49 rlineto
            return
          </CharString>
          <CharString index="303">
            727 rmoveto
            -998 465 -34 -74 837 -391 -837 -391 34 -74 rlineto
            return
          </CharString>
          <CharString index="304">
            1672 rmoveto
            -201 -151 -140 -205 -210 145 -123 207 return
          </CharString>
          <CharString index="305">
            -8 -137 hhcurveto
            hintmask 0001010110000000
            -73 callsubr
            hintmask 1000101110000000
            -43 vlineto
            86 return
          </CharString>
          <CharString index="306">
            181 -8 -21 29 41 602 38 525 39 hstemhm
            -1 callsubr
            hintmask 01111000
            return
          </CharString>
          <CharString index="307">
            rmoveto
            hintmask 11011000
            271 callgsubr
            -43 vlineto
            51 10 return
          </CharString>
          <CharString index="308">
            hhcurveto
            -203 -182 -113 -182 -162 117 -100 123 -113 hvcurveto
            return
          </CharString>
          <CharString index="309">
            99 callsubr
            60 return
          </CharString>
          <CharString index="310">
            194 callgsubr
            6 return
          </CharString>
          <CharString index="311">
            -149 -27 -27 -139 vhcurveto
            return
          </CharString>
          <CharString index="312">
            hstemhm
            137 369 return
          </CharString>
          <CharString index="313">
            27 149 hvcurveto
            return
          </CharString>
          <CharString index="314">
            261 callsubr
            117 2 112 return
          </CharString>
          <CharString index="315">
            -97 callgsubr
            70 4 195 callgsubr
            return
          </CharString>
          <CharString index="316">
            43 vlineto
            -57 8 -18 33 -29 72 rrcurveto
            endchar
          </CharString>
          <CharString index="317">
            160 -2 92 -80 callsubr
            return
          </CharString>
          <CharString index="318">
            47 -41 152 callgsubr
            return
          </CharString>
          <CharString index="319">
            27 27 0 -6 24 hvcurveto
            return
          </CharString>
          <CharString index="320">
            78 47 53 33 58 hhcurveto
            return
          </CharString>
          <CharString index="321">
            0 47 1356 47 return
          </CharString>
          <CharString index="322">
            228 callgsubr
            hstem
            return
          </CharString>
          <CharString index="323">
            0 134 callgsubr
            41 return
          </CharString>
          <CharString index="324">
            hstemhm
            72 409 return
          </CharString>
          <CharString index="325">
            -109 vhcurveto
            endchar
          </CharString>
          <CharString index="326">
            0 41 668 41 659 41 hstem
            -7 callsubr
            461 416 return
          </CharString>
          <CharString index="327">
            0 240 callgsubr
            hstem
            218 callgsubr
            271 376 return
          </CharString>
          <CharString index="328">
            119 115 195 161 -131 93 -131 22 hvcurveto
            endchar
          </CharString>
          <CharString index="329">
            -41 vlineto
            125 -6 21 141 callsubr
            return
          </CharString>
          <CharString index="330">
            47 hstem
            479 395 375 41 vstem
            return
          </CharString>
          <CharString index="331">
            -85 -29 107 -77 -21 28 37 979 68 return
          </CharString>
          <CharString index="332">
            -23 -92 -116 -6 -101 hhcurveto
            -20 -101 rlineto
            return
          </CharString>
          <CharString index="333">
            55 -80 callsubr
            return
          </CharString>
          <CharString index="334">
            60 vvcurveto
            100 -72 51 return
          </CharString>
          <CharString index="335">
            rmoveto
            -19 -18 -19 -8 return
          </CharString>
          <CharString index="336">
            39 4 -20 32 -20 hstemhm
            133 268 hintmask 00000000
            hintmask 00110000
            391 return
          </CharString>
          <CharString index="337">
            -133 -65 -14 -111 vhcurveto
            -43 vlineto
            74 2 143 6 145 return
          </CharString>
          <CharString index="338">
            -8 88 hflex1
            398 143 170 156 163 -156 return
          </CharString>
          <CharString index="339">
            -156 -107 -102 hhcurveto
            -68 hlineto
            -121 -24 21 149 hvcurveto
            492 return
          </CharString>
          <CharString index="340">
            rmoveto
            202 -739 -202 vlineto
            endchar
          </CharString>
          <CharString index="341">
            hvcurveto
            43 vlineto
            -98 return
          </CharString>
          <CharString index="342">
            87 0 163 callsubr
            922 47 vstem
            return
          </CharString>
          <CharString index="343">
            -172 39 118 -53 181 hhcurveto
            51 53 4 8 55 hvcurveto
            return
          </CharString>
          <CharString index="344">
            hstem
            292 callgsubr
            vstem
            return
          </CharString>
          <CharString index="345">
            rmoveto
            -41 -4 -68 -2 -61 -76 -98 2 return
          </CharString>
          <CharString index="346">
            87 -29 184 callsubr
            return
          </CharString>
          <CharString index="347">
            329 0 41 565 41 return
          </CharString>
          <CharString index="348">
            vvcurveto
            24 -4 35 -6 14 vhcurveto
            return
          </CharString>
          <CharString index="349">
            184 callgsubr
            -70 vhcurveto
            return
          </CharString>
          <CharString index="350">
            -47 -19 -12 -23 -65 hhcurveto
            return
          </CharString>
          <CharString index="351">
            -2 83 -80 callsubr
            return
          </CharString>
          <CharString index="352">
            rmoveto
            62 -1026 -62 vlineto
            return
          </CharString>
          <CharString index="353">
            64 31 rlinecurve
            41 vlineto
            return
          </CharString>
          <CharString index="354">
            rlinecurve
            39 vlineto
            -55 -4 return
          </CharString>
          <CharString index="355">
            hstemhm
            63 383 return
          </CharString>
          <CharString index="356">
            -29 37 1434 37 hstemhm
            76 303 -236 344 return
          </CharString>
          <CharString index="357">
            vhcurveto
            10 -43 -31 8 -35 hhcurveto
            -22 -23 -10 -23 -18 19 -14 return
          </CharString>
          <CharString index="358">
            rrcurveto
            35 vlineto
            -207 -96 -115 -111 -61 -164 rrcurveto
            return
          </CharString>
          <CharString index="359">
            852 1092 rmoveto
            101 callgsubr
            return
          </CharString>
          <CharString index="360">
            39 80 hhcurveto
            18 305 callsubr
            return
          </CharString>
          <CharString index="361">
            274 callgsubr
            endchar
          </CharString>
          <CharString index="362">
            43 942 107 return
          </CharString>
          <CharString index="363">
            77 -102 -119 -78 -75 -97 -92 45 -55 88 -33 vhcurveto
            return
          </CharString>
          <CharString index="364">
            -17 0 43 -34 -21 538 36 456 43 -12 43 return
          </CharString>
          <CharString index="365">
            -188 -240 -160 rrcurveto
            -41 vlineto
            240 -160 return
          </CharString>
          <CharString index="366">
            4 66 119 2 106 154 155 -4 62 hhcurveto
            return
          </CharString>
          <CharString index="367">
            -91 -39 -111 -1 -236 rrcurveto
            -299 -41 299 return
          </CharString>
          <CharString index="368">
            -97 callgsubr
            66 4 return
          </CharString>
          <CharString index="369">
            -240 22 rmoveto
            -29 -12 -14 -41 2 -39 -35 -23 rlinecurve
            return
          </CharString>
          <CharString index="370">
            300 callgsubr
            -107 -110 -95 return
          </CharString>
          <CharString index="371">
            318 143 111 33 39 return
          </CharString>
          <CharString index="372">
            -99 hflex1
            -41 vlineto
            return
          </CharString>
          <CharString index="373">
            hhcurveto
            -47 hlineto
            -72 -33 return
          </CharString>
          <CharString index="374">
            35 133 hvcurveto
            return
          </CharString>
          <CharString index="375">
            -2 32 hflex1
            return
          </CharString>
          <CharString index="376">
            74 72 -2 41 hflex1
            hintmask 10110110
            41 vlineto
            -93 4 return
          </CharString>
          <CharString index="377">
            -609 -385 39 940 37 932 39 hstem
            return
          </CharString>
          <CharString index="378">
            284 hstem
            111 1656 vstem
            1767 return
          </CharString>
          <CharString index="379">
            -29 37 604 37 232 37 604 37 hstemhm
            return
          </CharString>
          <CharString index="380">
            159 callgsubr
            hstemhm
            return
          </CharString>
          <CharString index="381">
            -570 -119 39 688 37 680 39 hstem
            return
          </CharString>
          <CharString index="382">
            vlineto
            -133 -65 -35 -111 vhcurveto
            -43 vlineto
            76 2 return
          </CharString>
          <CharString index="383">
            -6 288 callsubr
            return
          </CharString>
          <CharString index="384">
            -68 35 -125 hhcurveto
            -147 -113 -45 -109 return
          </CharString>
          <CharString index="385">
            6 -51 -9 callsubr
            151 callsubr
            return
          </CharString>
          <CharString index="386">
            -2 78 -80 callsubr
            return
          </CharString>
          <CharString index="387">
            41 551 47 -41 41 return
          </CharString>
          <CharString index="388">
            231 240 231 return
          </CharString>
          <CharString index="389">
            hhcurveto
            -12 -13 6 return
          </CharString>
          <CharString index="390">
            hstemhm
            -35 256 callgsubr
            1356 hintmask 11110100
            return
          </CharString>
          <CharString index="391">
            -10 70 139 callgsubr
            return
          </CharString>
          <CharString index="392">
            391 41 -391 vlineto
            266 0 108 return
          </CharString>
          <CharString index="393">
            183 callsubr
            84 31 35 63 return
          </CharString>
          <CharString index="394">
            -1 306 callgsubr
            return
          </CharString>
          <CharString index="395">
            -64 callsubr
            4 78 -20 callgsubr
            hhcurveto
            return
          </CharString>
          <CharString index="396">
            -195 57 -135 119 -94 207 rrcurveto
            return
          </CharString>
          <CharString index="397">
            284 hstem
            111 1054 vstem
            1165 return
          </CharString>
          <CharString index="398">
            hvcurveto
            6 -28 -31 6 -27 hhcurveto
            -28 -19 -8 -25 return
          </CharString>
          <CharString index="399">
            41 hstem
            -1 callsubr
            vstem
            return
          </CharString>
          <CharString index="400">
            229 callgsubr
            262 41 return
          </CharString>
          <CharString index="401">
            -74 -4 -131 -2 -139 return
          </CharString>
          <CharString index="402">
            63 30 rlinecurve
            41 vlineto
            return
          </CharString>
          <CharString index="403">
            -23 206 callsubr
            return
          </CharString>
          <CharString index="404" raw="1">
            16f74e1d 0b  
          </CharString>
          <CharString index="405">
            -41 vlineto
            139 -6 return
          </CharString>
          <CharString index="406">
            43 975 43 return
          </CharString>
          <CharString index="407">
            287 -285 359 hintmask 00000000
            hintmask 11100100
            return
          </CharString>
          <CharString index="408">
            92 callsubr
            529 41 hintmask 11101110
            return
          </CharString>
          <CharString index="409">
            -133 -143 96 callsubr
            -41 vlineto
            return
          </CharString>
          <CharString index="410">
            298 callsubr
            27 141 callsubr
            return
          </CharString>
          <CharString index="411">
            70 vvcurveto
            88 -95 45 -118 -142 -71 return
          </CharString>
          <CharString index="412">
            hlineto
            151 callsubr
            -680 vlineto
            return
          </CharString>
          <CharString index="413">
            -41 -262 -28 49 hvcurveto
            16 hlineto
            28 49 return
          </CharString>
          <CharString index="414">
            70 -101 -172 vhcurveto
            -231 -156 -41 return
          </CharString>
          <CharString index="415">
            152 callgsubr
            308 430 return
          </CharString>
          <CharString index="416">
            131 123 -2 70 -80 callsubr
            return
          </CharString>
          <CharString index="417">
            hstemhm
            -8 1343 -1204 453 return
          </CharString>
          <CharString index="418">
            100 132 166 137 178 84 return
          </CharString>
          <CharString index="419">
            84 166 70 75 64 31 rrcurveto
            41 vlineto
            return
          </CharString>
          <CharString index="420">
            184 callsubr
            hstemhm
            172 416 return
          </CharString>
          <CharString index="421">
            41 1362 47 hstemhm
            508 416 return
          </CharString>
          <CharString index="422">
            368 hintmask 00000000
            return
          </CharString>
          <CharString index="423">
            127 -113 return
          </CharString>
          <CharString index="424">
            41 164 41 return
          </CharString>
          <CharString index="425">
            -17 -14 12 hvcurveto
            return
          </CharString>
        <CharString name=".notdef">
          -181 0 61 1459 61 hstem
          123 74 757 74 vstem
          1028 hmoveto
          1581 -905 -1581 vlineto
          74 1520 rmoveto
          757 -1459 -757 hlineto
          endchar
        </CharString>
        <CharString name="A">
          37 callsubr
          815 1450 -9 callgsubr
          rlineto
          hintmask 11110000
          109 callsubr
          rrcurveto
          -104 callgsubr
        </CharString>
        <CharString name="AE">
          536 0 41 -41 47 662 41 653 47 -41 41 hstemhm
          -35 324 512 416 hintmask 01110010
          1765 303 rmoveto
          74 2 65 5 50 vhcurveto
          -48 hlineto
          -338 -36 232 callsubr
          81 vlineto
          142 135 callsubr
          -142 hhcurveto
          -81 251 callgsubr
          124 -96 -308 43 hvcurveto
          48 hlineto
          -5 35 -2 56 57 vvcurveto
          59 5 123 10 121 vhcurveto
          -6 -127 -176 0 -125 hhcurveto
          -90 -165 0 2 -165 hvcurveto
          78 135 rlineto
          -49 hlineto
          -78 -135 -65 1 -64 1 -58 2 rlinecurve
          hintmask 10101110
          -41 vlineto
          77 -4 38 -9 18 -44 -682 -1180 rcurveline
          -57 -98 -41 -31 -43 -2 rrcurveto
          hintmask 01110110
          -41 vlineto
          33 4 55 2 49 269 callsubr
          -48 18 50 vvcurveto
          25 12 32 24 43 vhcurveto
          285 496 rlineto
          332 -492 hlineto
          hintmask 01110010
          -94 callsubr
          219 6 302 0 135 137 192 0 140 hflex1
          -15 119 0 125 59 vvcurveto
          -964 447 rmoveto
          -309 hlineto
          308 536 rlineto
          1 -16 0 -17 -20 vvcurveto
          endchar
        </CharString>
        <CharString name="Aacute">
          37 callsubr
          996 -58 callsubr
          -181 -236 -9 callgsubr
          rlineto
          hintmask 11110000
          109 callsubr
          rrcurveto
          -104 callgsubr
        </CharString>
        <CharString name="Abreve">
          161 callgsubr
          133 202 hstemhm
          -43 256 callgsubr
          1475 hintmask 11110100
          690 95 callgsubr
          125 -113 -9 callgsubr
          rlineto
          hintmask 11111000
          109 callsubr
          rrcurveto
          -104 callgsubr
        </CharString>
        <CharString name="Acircumflex">
          37 callsubr
          670 1700 -75 callgsubr
          145 -250 -9 callgsubr
          rlineto
          hintmask 11110000
          109 callsubr
          rrcurveto
          -104 callgsubr
        </CharString>
        <CharString name="Adieresis">
          161 callgsubr
          hstemhm
          -43 426 -114 129 callgsubr
          hintmask 11101100
          447 -22 callgsubr
          -160 -111 -9 callgsubr
          rlineto
          hintmask 11110100
          109 callsubr
          rrcurveto
          -104 callgsubr
        </CharString>
        <CharString name="Agrave">
          37 callsubr
          398 -40 callsubr
          417 -236 -9 callgsubr
          rlineto
          hintmask 11110000
          109 callsubr
          rrcurveto
          -104 callgsubr
        </CharString>
        <CharString name="Amacron">
          161 callgsubr
          247 52 hstemhm
          -43 256 callgsubr
          1475 hintmask 11110100
          1153 138 callsubr
          547 -227 -9 callgsubr
          rlineto
          hintmask 11111000
          109 callsubr
          rrcurveto
          -104 callgsubr
        </CharString>
        <CharString name="Aogonek">
          85 -385 123 262 109 callgsubr
          hstemhm
          -43 256 callgsubr
          1475 -528 272 hintmask 11110100
          1432 hmoveto
          41 vlineto
          -37 2 -47 35 -37 94 -496 1278 rcurveline
          -33 -3 -37 -2 -37 -38 -37 2 -33 hflex1
          -455 -1169 rlineto
          hintmask 11111010
          109 callsubr
          rrcurveto
          -90 callsubr
          4 73 132 2 139 hhcurveto
          88 89 -1 -2 79 hvcurveto
          -258 -43 -153 -83 -117 35 callsubr
          55 58 74 160 56 hvcurveto
          -696 589 rmoveto
          -383 hlineto
          197 512 rlineto
          endchar
        </CharString>
        <CharString name="Aring">
          161 callgsubr
          90 43 329 43 hstem
          -43 426 91 57 363 57 vstem
          711 1520 rmoveto
          127 113 79 130 126 -113 80 -127 250 callgsubr
          hvcurveto
          372 198 callgsubr
          104 -442 -9 callgsubr
          109 callsubr
          rlinecurve
          -104 callgsubr
        </CharString>
        <CharString name="Atilde">
          161 callgsubr
          137 140 callgsubr
          -43 256 callgsubr
          1475 hintmask 11101010
          443 1704 rmoveto
          hintmask 11110010
          -37 callgsubr
          14 rlineto
          -77 -59 -66 -31 -73 hhcurveto
          hintmask 11101010
          -177 -57 170 callsubr
          -129 -121 -90 -223 -55 hvcurveto
          28 -15 rlineto
          78 60 65 33 74 hhcurveto
          372 -254 -9 callgsubr
          rlineto
          hintmask 11101100
          109 callsubr
          rrcurveto
          -104 callgsubr
        </CharString>
        <CharString name="B">
          -45 callsubr
        </CharString>
        <CharString name="C">
          136 -29 27 callgsubr
          764 47 -39 39 hintmask 10101100
          848 1479 -95 callgsubr
        </CharString>
        <CharString name="CR">
          -1332 endchar
        </CharString>
        <CharString name="Cacute">
          136 -29 27 callgsubr
          764 47 -39 39 hintmask 10101100
          955 1923 -89 callsubr
          -107 -444 -95 callgsubr
        </CharString>
        <CharString name="Cacute.loclPLK">
          136 -29 27 callgsubr
          202 265 297 47 -39 39 hintmask 10101110
          932 -72 callgsubr
          -84 -503 -15 callgsubr
        </CharString>
        <CharString name="Ccaron">
          136 -29 27 callgsubr
          764 47 -39 39 hintmask 10101100
          1244 -69 callsubr
          -406 -428 -95 callgsubr
        </CharString>
        <CharString name="Ccedilla">
          136 299 callgsubr
          27 callgsubr
          383 270 111 47 -39 39 -39 47 hintmask 1101010100000000
          1309 532 rmoveto
          -19 -223 -33 -137 -137 -84 rrcurveto
          -37 -57 -66 -24 -67 hhcurveto
          -314 -71 387 307 307 71 387 314 67 66 -24 -37 57 hvcurveto
          137 -90 33 -129 19 -197 rrcurveto
          47 hlineto
          hintmask 1100110100000000
          258 2 145 6 109 vhcurveto
          hintmask 1100110001000000
          252 callgsubr
          hintmask 1101011010000000
          69 -90 -107 64 -180 hhcurveto
          -455 -319 -308 -458 -459 296 -271 447 -12 hvcurveto
          -55 -188 rlineto
          -68 callgsubr
          28 94 160 6 97 60 96 67 rlinecurve
          11 17 14 6 11 hhcurveto
          hintmask 1011010010000000
          29 14 -37 -84 7 hvcurveto
          47 hlineto
          -6 113 -2 151 268 vvcurveto
          endchar
        </CharString>
        <CharString name="Ccircumflex">
          136 -29 27 callgsubr
          764 47 -39 39 hintmask 10101100
          779 1958 -103 callsubr
          32 -479 -95 callgsubr
        </CharString>
        <CharString name="Cdotaccent">
          136 -29 27 callgsubr
          51 405 308 47 -39 39 hintmask 10101110
          799 73 callgsubr
          49 -430 -15 callgsubr
        </CharString>
        <CharString name="D">
          329 0 37 1376 93 callsubr
          -1016 1 callgsubr
          31 -37 rmoveto
          268 117 -221 -459 -446 -104 -250 -279 -127 -27 33 143 hvcurveto
          1024 vlineto
          141 27 35 125 vhcurveto
          endchar
        </CharString>
        <CharString name="Dcaron">
          329 0 37 1376 37 hstem
          -7 callsubr
          537 430 vstem
          1186 -69 callsubr
          -457 -457 149 callgsubr
          -1016 1 callgsubr
          31 -37 rmoveto
          268 117 -221 -459 -446 -104 -250 -279 -127 -27 33 143 hvcurveto
          1024 vlineto
          141 27 35 125 vhcurveto
          endchar
        </CharString>
        <CharString name="Dcroat">
          329 0 37 672 41 663 93 callsubr
          -483 -146 -41 146 -492 1 callgsubr
          33 -1413 rmoveto
          -127 -27 33 143 hvcurveto
          496 234 41 -234 487 vlineto
          141 27 35 125 268 117 -221 -459 -446 -104 -250 -279 vhcurveto
          endchar
        </CharString>
        <CharString name="Delta">
          -312 0 61 1418 -20 hstem
          53 905 vstem
          563 217 callgsubr
          -33 hlineto
          -477 -1479 rlineto
          152 4 151 2 152 149 152 -2 149 hflex1
          -843 61 rmoveto
          256 803 219 -803 rlineto
          endchar
        </CharString>
        <CharString name="E">
          -1 0 2 callgsubr
          529 41 hintmask 11101100
          1229 344 117 callgsubr
          -107 callgsubr
          hintmask 11011100
          -81 callsubr
          hintmask 11101100
          28 callgsubr
          endchar
        </CharString>
        <CharString name="Eacute">
          -1 0 2 callgsubr
          529 41 hintmask 11101100
          940 -58 callsubr
          289 -1342 117 callgsubr
          -107 callgsubr
          hintmask 11011100
          -81 callsubr
          hintmask 11101100
          28 callgsubr
          endchar
        </CharString>
        <CharString name="Ebreve">
          287 callsubr
          113 202 301 callsubr
          634 95 callgsubr
          595 -1219 117 callgsubr
          -107 callgsubr
          hintmask 11011110
          -81 callsubr
          hintmask 11101110
          28 callgsubr
          endchar
        </CharString>
        <CharString name="Ecaron">
          -1 0 2 callgsubr
          529 41 hintmask 11101100
          668 90 callsubr
          598 -1210 117 callgsubr
          -107 callgsubr
          hintmask 11011100
          -81 callsubr
          hintmask 11101100
          28 callgsubr
          endchar
        </CharString>
        <CharString name="Ecircumflex">
          -1 0 2 callgsubr
          529 41 hintmask 11101100
          614 1700 -75 callgsubr
          615 -1356 117 callgsubr
          -107 callgsubr
          hintmask 11011100
          -81 callsubr
          hintmask 11101100
          28 callgsubr
          endchar
        </CharString>
        <CharString name="Edieresis">
          -1 0 2 callgsubr
          -405 129 callgsubr
          50 41 hintmask 00000000
          hintmask 11100110
          391 -22 callgsubr
          310 -1217 117 callgsubr
          hintmask 11101001
          -107 callgsubr
          hintmask 11011000
          -81 callsubr
          hintmask 11100110
          28 callgsubr
          endchar
        </CharString>
        <CharString name="Edotaccent">
          -1 0 2 callgsubr
          -164 405 288 41 hintmask 00000000
          hintmask 11100100
          657 1556 rmoveto
          129 73 60 117 116 -73 60 -129 -131 -72 -60 -116 -117 135 callgsubr
          hvcurveto
          572 -1212 117 callgsubr
          hintmask 11101010
          -107 callgsubr
          hintmask 11011000
          -81 callsubr
          hintmask 11100100
          28 callgsubr
          endchar
        </CharString>
        <CharString name="Egrave">
          -1 0 2 callgsubr
          529 41 hintmask 11101100
          342 -40 callsubr
          887 -1342 117 callgsubr
          -107 callgsubr
          hintmask 11011100
          -81 callsubr
          hintmask 11101100
          28 callgsubr
          endchar
        </CharString>
        <CharString name="Emacron">
          287 callsubr
          227 52 301 callsubr
          1097 138 callsubr
          1017 -1333 117 callgsubr
          -107 callgsubr
          hintmask 11011110
          -81 callsubr
          hintmask 11101110
          28 callgsubr
          endchar
        </CharString>
        <CharString name="Eng">
          161 -385 41 344 134 callgsubr
          41 hstem
          203 47 477 385 141 47 vstem
          1276 1444 rmoveto
          -70 -69 2 4 -50 hvcurveto
          -41 vlineto
          140 -6 26 -54 callgsubr
          -668 vlineto
          -837 885 206 callgsubr
          -68 19 callgsubr
          -1016 vlineto
          -149 -23 -21 -123 -6 211 callgsubr
          70 70 -2 49 -80 callsubr
          -140 6 -26 -58 callgsubr
          774 vlineto
          907 -991 35 3 31 1 29 -1 rlinecurve
          -241 -9 -68 221 callgsubr
          -72 53 -112 309 callgsubr
          155 195 106 88 391 vhcurveto
          1139 vlineto
          149 23 21 254 callgsubr
        </CharString>
        <CharString name="Eogonek">
          -1 229 callgsubr
          262 2 callgsubr
          114 272 143 41 hintmask 11110111
          1221 -215 rmoveto
          -27 -31 -59 133 callgsubr
          55 57 74 159 56 hvcurveto
          23 -1 rlineto
          -14 135 0 141 68 vvcurveto
          -49 callsubr
          -107 callgsubr
          hintmask 11101111
          -41 vlineto
          -76 callgsubr
          -54 callgsubr
          -1016 -97 callgsubr
          6 238 125 callsubr
          hhcurveto
          106 139 0 -3 122 hvcurveto
          -257 -44 -152 -83 -116 vvcurveto
          -92 69 -53 133 144 90 41 98 80 vhcurveto
          endchar
        </CharString>
        <CharString name="Eth">
          329 0 37 672 41 663 93 callsubr
          -483 -146 -41 146 -492 1 callgsubr
          33 -1413 rmoveto
          -127 -27 33 143 hvcurveto
          496 234 41 -234 487 vlineto
          141 27 35 125 268 117 -221 -459 -446 -104 -250 -279 vhcurveto
          endchar
        </CharString>
        <CharString name="Euro">
          52 -29 39 598 317 callsubr
          586 136 callgsubr
          -200 -89 212 386 -14 hvcurveto
          281 hlineto
          24 41 rlineto
          -306 hlineto
          -1 72 rlineto
          32 1 30 1 30 vhcurveto
          397 hlineto
          23 41 rlineto
          -419 hlineto
          365 20 105 221 177 hhcurveto
          60 38 -6 -11 35 hvcurveto
          -82 -30 275 callgsubr
          61 97 65 -43 51 -61 35 vhcurveto
          47 -82 -98 15 -140 hhcurveto
          -329 -267 -246 -379 -53 hvcurveto
          -158 -41 153 hlineto
          -3 -32 -2 -34 -34 vvcurveto
          -22 1 -21 1 -21 vhcurveto
          -150 -41 152 hlineto
          -404 36 243 -233 376 177 callsubr
        </CharString>
        <CharString name="Euro.smcp">
          52 -29 39 496 317 callsubr
          483 136 callgsubr
          -197 -90 173 323 -15 hvcurveto
          280 hlineto
          24 41 rlineto
          -306 hlineto
          -1 23 0 24 24 vvcurveto
          32 1 31 1 30 vhcurveto
          397 hlineto
          23 41 rlineto
          -417 hlineto
          303 23 103 180 174 hhcurveto
          60 38 -8 -8 35 hvcurveto
          -82 -31 275 callgsubr
          62 96 65 -43 52 -61 34 vhcurveto
          48 -82 -98 14 -140 hhcurveto
          -322 -263 -204 -318 -61 hvcurveto
          -161 -41 154 hlineto
          -4 -33 -2 -33 -35 vvcurveto
          -21 1 -21 1 -21 vhcurveto
          -150 -41 154 hlineto
          -342 40 242 -193 371 177 callsubr
        </CharString>
        <CharString name="F">
          -87 0 2 callgsubr
          529 41 hintmask 11101100
          1202 234 callgsubr
          -127 -6 -176 0 -125 -147 -332 0 -238 hflex1
          hintmask 11011100
          -41 vlineto
          -76 callgsubr
          -54 callgsubr
          -1016 -97 callgsubr
          111 2 131 4 125 170 160 -4 92 hflex1
          47 vlineto
          -189 -39 23 168 hvcurveto
          471 21 vlineto
          154 106 -119 -152 25 hvcurveto
          47 hlineto
          -10 156 -3 68 67 29 -1 28 35 vvcurveto
          48 2 61 6 90 vhcurveto
          -47 hlineto
          -119 -25 -100 -151 -154 hhcurveto
          -21 524 hlineto
          hintmask 11101100
          54 callgsubr
          endchar
        </CharString>
        <CharString name="G">
          216 -29 83 callgsubr
          805 47 -4 41 hintmask 10110110
          868 1479 -77 callgsubr
        </CharString>
        <CharString name="Gacute">
          216 -29 83 callgsubr
          805 47 -4 41 hintmask 10110110
          983 1923 -89 callsubr
          -115 -444 -77 callgsubr
        </CharString>
        <CharString name="Gbreve">
          216 -29 41 9 -21 582 41 792 64 -29 -20 133 202 hstemhm
          74 471 805 47 -4 41 hintmask 1011011100000000
          1269 -27 callgsubr
          -426 -383 -31 callsubr
        </CharString>
        <CharString name="Gcircumflex">
          216 -29 83 callgsubr
          805 47 -4 41 hintmask 10110110
          807 1958 -103 callsubr
          24 -479 -77 callgsubr
        </CharString>
        <CharString name="Gcommaaccent">
          216 -364 -21 356 83 callgsubr
          129 372 304 47 -4 41 hintmask 1101101110000000
          868 217 callgsubr
          -467 -327 -308 -458 -467 256 -275 514 117 122 47 52 107 hvcurveto
          hintmask 1011101101000000
          -66 callsubr
          hintmask 1101101101000000
          -49 -14 -33 -29 -20 vhcurveto
          -17 -25 -32 -8 -44 hhcurveto
          -198 -131 217 492 307 90 387 315 72 82 -22 -39 57 hvcurveto
          hintmask 1101011110000000
          135 -92 35 -127 19 -197 rrcurveto
          47 hlineto
          258 2 145 6 109 vhcurveto
          -47 hlineto
          -84 -8 -15 -39 -28 hhcurveto
          -13 -14 6 13 -14 hvcurveto
          hintmask 1101101110000000
          73 -92 -115 60 -191 hhcurveto
          -12 -1573 rmoveto
          -102 callgsubr
          110 -77 58 -113 vhcurveto
          endchar
        </CharString>
        <CharString name="Gdotaccent">
          216 -29 83 callgsubr
          106 405 294 47 -4 41 hintmask 1011011100000000
          854 73 callgsubr
          14 -430 -31 callsubr
        </CharString>
        <CharString name="H">
          366 219 callsubr
          vstem
          1640 234 callgsubr
          38 callsubr
          -483 -461 483 vlineto
          149 21 21 125 6 vhcurveto
          41 vlineto
          -80 -4 -135 -2 -127 -148 -139 2 -78 hflex1
          -41 vlineto
          -107 callsubr
          492 461 -492 84 callgsubr
          84 4 143 2 135 140 131 -2 73 -19 callgsubr
          51 callsubr
          21 21 121 callsubr
          endchar
        </CharString>
        <CharString name="Hbar">
          366 0 41 668 41 301 41 317 41 hstem
          -7 callsubr
          461 416 vstem
          1640 234 callgsubr
          38 callsubr
          -141 -461 141 vlineto
          149 21 21 125 6 vhcurveto
          41 vlineto
          -80 -4 -14 callgsubr
          -148 -139 96 callsubr
          -41 vlineto
          -76 callgsubr
          -54 callgsubr
          -141 -146 -41 146 -834 vlineto
          -149 -21 -103 callgsubr
          492 461 -492 84 callgsubr
          84 4 143 2 135 140 131 -2 73 -19 callgsubr
          834 145 41 -145 141 vlineto
          149 21 21 121 callsubr
          -561 -358 rmoveto
          -301 -461 301 vlineto
          endchar
        </CharString>
        <CharString name="Hcircumflex">
          366 219 callsubr
          vstem
          836 1958 -103 callsubr
          767 -508 rmoveto
          38 callsubr
          -483 -461 483 vlineto
          149 21 21 125 6 vhcurveto
          41 vlineto
          -80 -4 -135 -2 -127 -148 -139 2 -78 hflex1
          -41 vlineto
          -107 callsubr
          492 461 -492 84 callgsubr
          84 4 143 2 135 140 131 -2 73 -19 callgsubr
          51 callsubr
          21 21 121 callsubr
          endchar
        </CharString>
        <CharString name="I">
          128 callsubr
          764 234 callgsubr
          -80 -4 -14 callgsubr
          -148 -139 96 callsubr
          -41 vlineto
          -107 callsubr
          1016 143 callgsubr
        </CharString>
        <CharString name="IJ">
          302 -385 43 342 134 callgsubr
          152 callgsubr
          -116 385 142 415 hintmask 11110100
          764 234 callgsubr
          -80 -4 -14 callgsubr
          -148 -139 96 callsubr
          -41 vlineto
          -107 callsubr
          51 callsubr
          21 21 125 6 vhcurveto
          826 41 rmoveto
          -84 -4 -144 -2 -135 -139 -131 2 -74 hflex1
          -41 vlineto
          -76 callgsubr
          -54 callgsubr
          -936 vlineto
          -283 0 -108 -43 -119 vhcurveto
          -70 -27 -62 -59 -92 183 callsubr
          hintmask 11101100
          -41 callgsubr
          305 209 145 189 61 hvcurveto
          31 98 5 137 131 58 -1 58 52 vvcurveto
          750 143 callgsubr
        </CharString>
        <CharString name="Iacute">
          128 callsubr
          580 1923 -89 callsubr
          184 -473 rmoveto
          -80 -4 -14 callgsubr
          -148 -139 96 callsubr
          -41 vlineto
          -107 callsubr
          1016 143 callgsubr
        </CharString>
        <CharString name="Ibreve">
          181 callsubr
          113 202 hstem
          -7 callsubr
          vstem
          866 -27 callgsubr
          -127 -412 rmoveto
          -80 -4 -14 callgsubr
          -148 -139 96 callsubr
          -41 vlineto
          -107 callsubr
          1016 143 callgsubr
        </CharString>
        <CharString name="Icircumflex">
          128 callsubr
          404 1958 -103 callsubr
          323 -508 rmoveto
          -80 -4 -14 callgsubr
          -148 -139 96 callsubr
          -41 vlineto
          -107 callsubr
          1016 143 callgsubr
        </CharString>
        <CharString name="Idieresis">
          181 callsubr
          hstemhm
          -20 356 -133 415 -110 356 hintmask 00000000
          hintmask 11101000
          158 -23 callsubr
          78 -467 rmoveto
          -80 -4 -14 callgsubr
          -148 -139 96 callsubr
          -41 vlineto
          hintmask 11010000
          -107 callsubr
          1016 143 callgsubr
        </CharString>
        <CharString name="Idotaccent">
          181 callsubr
          hstemhm
          199 446 -442 415 hintmask 00000000
          hintmask 11100000
          422 1999 rmoveto
          -52 callsubr
          342 -549 rmoveto
          -80 -4 -14 callgsubr
          -148 -139 96 callsubr
          -41 vlineto
          hintmask 11010000
          -107 callsubr
          1016 143 callgsubr
        </CharString>
        <CharString name="Igrave">
          128 callsubr
          236 -11 callgsubr
          528 -473 rmoveto
          -80 -4 -14 callgsubr
          -148 -139 96 callsubr
          -41 vlineto
          -107 callsubr
          1016 143 callgsubr
        </CharString>
        <CharString name="Imacron">
          181 callsubr
          227 52 hstem
          -7 callsubr
          vstem
          864 138 callsubr
          785 -227 rmoveto
          -80 -4 -14 callgsubr
          -148 -139 96 callsubr
          -41 vlineto
          -107 callsubr
          1016 143 callgsubr
        </CharString>
        <CharString name="Iogonek">
          -511 293 callsubr
          1368 152 callgsubr
          -396 272 hintmask 11110000
          764 234 callgsubr
          -80 -4 -14 callgsubr
          -148 -139 96 callsubr
          -41 vlineto
          -76 callgsubr
          -54 callgsubr
          -1016 vlineto
          -149 -21 -21 -125 276 callsubr
          73 75 -1 -1 66 hvcurveto
          hintmask 11101000
          -260 -44 -154 -83 -117 35 callsubr
          56 58 74 161 56 hvcurveto
          51 -2 rlineto
          41 vlineto
          hintmask 11110000
          -123 -55 callsubr
          1016 143 callgsubr
        </CharString>
        <CharString name="Itilde">
          181 callsubr
          117 140 callgsubr
          203 415 hintmask 11011000
          232 30 callsubr
          hintmask 11101000
          -37 callgsubr
          14 rlineto
          -77 -59 -66 -31 -73 hhcurveto
          hintmask 11011000
          -177 -57 170 callsubr
          532 -471 rmoveto
          -80 -4 -14 callgsubr
          -148 -139 96 callsubr
          -41 vlineto
          -107 callsubr
          1016 143 callgsubr
        </CharString>
        <CharString name="J">
          -12 callgsubr
        </CharString>
        <CharString name="Jcircumflex">
          -533 -385 43 1751 41 hstemhm
          -334 744 -217 415 hintmask 11010000
          373 1958 rmoveto
          -101 -131 -166 -137 -178 -84 11 -31 rcurveline
          155 29 166 51 90 45 107 -45 198 -51 189 -29 10 31 rcurveline
          hintmask 11100000
          -61 callgsubr
          344 -508 rmoveto
          -84 -4 -144 -2 -135 -139 -131 2 -74 hflex1
          -41 vlineto
          hintmask 11010000
          -76 callgsubr
          -54 callgsubr
          -936 vlineto
          -283 0 -108 -43 -119 vhcurveto
          -70 -27 -62 -59 -92 183 callsubr
          hintmask 11100000
          -41 callgsubr
          hintmask 11010000
          305 209 145 189 61 hvcurveto
          31 98 5 137 131 58 -1 58 52 vvcurveto
          750 143 callgsubr
        </CharString>
        <CharString name="K">
          212 0 41 685 45 640 39 hstem
          -7 callsubr
          vstem
          977 958 rmoveto
          201 228 129 145 114 55 242 callgsubr
          -63 -2 -88 -154 -78 2 -114 hflex1
          -39 vlineto
          95 -4 73 -49 -82 vvcurveto
          -50 -27 -62 -64 -72 vhcurveto
          -69 -78 -147 -164 -91 -71 -113 -8 rlinecurve
          462 vlineto
          149 21 21 125 6 vhcurveto
          41 vlineto
          -80 -4 -135 -2 -127 -148 -139 2 -78 hflex1
          -41 vlineto
          -107 callsubr
          509 vlineto
          39 -6 19 -19 39 -66 297 -502 rcurveline
          13 -23 8 -17 -13 vvcurveto
          -26 -33 -9 -85 166 callsubr
          142 6 88 0 63 117 137 -2 115 -80 callsubr
          -61 33 -29 35 -35 57 rrcurveto
          endchar
        </CharString>
        <CharString name="Kcommaaccent">
          212 -364 -21 385 41 685 45 640 39 hstem
          -7 callsubr
          83 372 vstem
          977 958 rmoveto
          201 228 129 145 114 55 242 callgsubr
          -63 -2 -88 -154 -78 2 -114 hflex1
          -39 vlineto
          95 -4 73 -49 -82 vvcurveto
          -50 -27 -62 -64 -72 vhcurveto
          -69 -78 -147 -164 -91 -71 -113 -8 rlinecurve
          462 vlineto
          149 21 21 125 6 vhcurveto
          41 vlineto
          -80 -4 -135 -2 -127 -148 -139 2 -78 hflex1
          -41 vlineto
          -107 callsubr
          509 vlineto
          39 -6 19 -19 39 -66 297 -502 rcurveline
          13 -23 8 -17 -13 vvcurveto
          -26 -33 -9 -85 166 callsubr
          142 6 88 0 63 117 137 -2 115 -80 callsubr
          -61 33 -29 35 -35 57 rrcurveto
          -569 -260 rmoveto
          -102 callgsubr
          110 -77 58 -113 vhcurveto
          endchar
        </CharString>
        <CharString name="L">
          -50 0 47 1362 41 hstem
          -7 callsubr
          vstem
          784 1450 -82 callgsubr
          endchar
        </CharString>
        <CharString name="Lacute">
          -50 0 47 1362 41 hstem
          -7 callsubr
          vstem
          580 1923 -89 callsubr
          204 -473 -82 callgsubr
          endchar
        </CharString>
        <CharString name="Lcaron">
          -50 0 47 1362 41 12 -20 92 callsubr
          299 268 hintmask 00000000
          hintmask 10111000
          1175 1462 200 callsubr
          -29 -53 174 callgsubr
          hintmask 10111000
          170 197 110 124 89 241 callsubr
          hintmask 11010000
          -391 -12 -82 callgsubr
          endchar
        </CharString>
        <CharString name="Lcommaaccent">
          -50 -364 -21 385 47 1362 152 callgsubr
          -48 372 hintmask 11110000
          784 1450 -82 callgsubr
          hintmask 11101000
          -32 -1503 rmoveto
          -102 callgsubr
          110 -77 58 -113 vhcurveto
          endchar
        </CharString>
        <CharString name="Ldot">
          67 0 47 1362 41 hstem
          -7 callsubr
          336 406 vstem
          784 1450 -82 callgsubr
          373 -458 rmoveto
          156 callgsubr
        </CharString>
        <CharString name="Lslash">
          -50 0 47 1362 41 hstem
          -7 callsubr
          vstem
          1229 365 rmoveto
          73 2 66 4 49 vhcurveto
          -47 hlineto
          -264 -47 -207 -242 -143 hhcurveto
          -68 hlineto
          -88 -17 16 113 hvcurveto
          542 vlineto
          351 204 rlineto
          47 vlineto
          -351 -204 rlineto
          468 vlineto
          149 27 21 139 6 vhcurveto
          41 vlineto
          182 callsubr
          -148 -139 96 callsubr
          -41 vlineto
          -76 callgsubr
          -54 callgsubr
          -688 vlineto
          -146 -84 rlineto
          -47 vlineto
          146 84 rlineto
          -281 -21 callsubr
          -14 143 0 150 72 vvcurveto
          endchar
        </CharString>
        <CharString name="M">
          -33 callgsubr
        </CharString>
        <CharString name="N">
          115 callsubr
          hintmask 00000000
          hintmask 11011000
          1450 1450 -63 callgsubr
        </CharString>
        <CharString name="NULL">
          -1332 endchar
        </CharString>
        <CharString name="Nacute">
          115 callsubr
          hintmask 11010100
          940 1923 -89 callsubr
          hintmask 11011000
          510 -473 -63 callgsubr
        </CharString>
        <CharString name="Nacute.loclPLK">
          167 216 callsubr
          hstemhm
          61 400 -254 47 478 265 54 267 callgsubr
          hintmask 11011010
          917 -72 callgsubr
          hintmask 11011100
          533 -532 66 callsubr
          hintmask 11011010
          -60 callsubr
          hintmask 11101010
          23 callgsubr
          hintmask 11011010
          -39 callgsubr
          endchar
        </CharString>
        <CharString name="Ncaron">
          115 callsubr
          hintmask 11010100
          1229 -69 callsubr
          hintmask 11011000
          211 -457 -63 callgsubr
        </CharString>
        <CharString name="Ncommaaccent">
          167 -364 -21 385 134 callgsubr
          41 hstemhm
          61 400 -254 47 330 372 95 267 callgsubr
          hintmask 00000000
          hintmask 11101010
          1450 1450 66 callsubr
          hintmask 11101001
          -60 callsubr
          hintmask 11110001
          23 callgsubr
          hintmask 11101101
          -39 callgsubr
          -684 -1503 rmoveto
          -102 callgsubr
          110 -77 58 -113 vhcurveto
          endchar
        </CharString>
        <CharString name="Ntilde">
          167 216 callsubr
          117 140 callgsubr
          61 400 -254 47 797 267 callgsubr
          hintmask 11010101
          592 30 callsubr
          hintmask 11100101
          -37 callgsubr
          14 rlineto
          -77 -59 -66 -31 -73 hhcurveto
          hintmask 11010101
          -177 -57 170 callsubr
          hintmask 11010110
          858 -471 66 callsubr
          hintmask 11010101
          -60 callsubr
          hintmask 11011001
          23 callgsubr
          hintmask 11010101
          -39 callgsubr
          endchar
        </CharString>
        <CharString name="O">
          22 callsubr
          848 1479 -101 callgsubr
        </CharString>
        <CharString name="OE">
          798 -29 37 -2 41 -26 -21 709 41 653 47 -8 37 hstemhm
          74 430 559 416 467 41 hintmask 0101101110000000
          2028 303 rmoveto
          74 2 65 4 50 vhcurveto
          -47 hlineto
          -338 -37 232 callsubr
          82 vlineto
          141 135 callsubr
          -141 hhcurveto
          -82 251 callgsubr
          125 -96 -308 43 hvcurveto
          47 hlineto
          -4 35 -2 56 57 247 callgsubr
          10 121 vhcurveto
          -6 -127 -176 0 -125 hhcurveto
          hintmask 1001011110000000
          -119 -229 0 2 -219 hvcurveto
          20 -56 -61 13 -62 hhcurveto
          -442 -311 -308 -458 -469 301 -273 450 64 65 15 18 52 hvcurveto
          hintmask 0101101110000000
          2 217 231 0 119 hhcurveto
          hintmask 0011101110000000
          137 193 0 -6 139 hvcurveto
          hintmask 0101101110000000
          -14 119 0 125 59 vvcurveto
          -965 -127 rmoveto
          hintmask 1001011110000000
          -119 -137 -49 -92 -183 -147 277 436 424 123 297 192 86 158 -31 -158 vhcurveto
          endchar
        </CharString>
        <CharString name="Oacute">
          22 callsubr
          1002 1923 -89 callsubr
          -154 -444 -101 callgsubr
        </CharString>
        <CharString name="Oacute.loclPLK">
          362 -29 37 1434 37 hstem
          74 430 290 265 131 430 vstem
          979 -72 callgsubr
          -131 -503 -101 callgsubr
        </CharString>
        <CharString name="Obreve">
          362 -29 37 1434 37 84 202 hstem
          294 callgsubr
          vstem
          1288 -27 callgsubr
          -465 -383 -101 callgsubr
        </CharString>
        <CharString name="Ocircumflex">
          22 callsubr
          826 1958 -103 callsubr
          -15 -479 -101 callgsubr
        </CharString>
        <CharString name="Odieresis">
          362 -29 37 1434 37 hstemhm
          74 430 -102 129 callgsubr
          -96 430 hintmask 00000000
          hintmask 11011000
          580 -23 callsubr
          hintmask 11100100
          -260 -438 -101 callgsubr
        </CharString>
        <CharString name="Ograve">
          22 callsubr
          658 -11 callgsubr
          190 -444 -101 callgsubr
        </CharString>
        <CharString name="Ohungarumlaut">
          22 callsubr
          737 1931 rmoveto
          -71 -53 -31 -46 callsubr
          465 hmoveto
          -72 -53 -30 -46 callsubr
          -354 -452 -101 callgsubr
        </CharString>
        <CharString name="Omacron">
          362 -29 37 1434 37 198 52 hstem
          294 callgsubr
          vstem
          1286 138 callsubr
          447 -198 -101 callgsubr
        </CharString>
        <CharString name="Omega">
          278 0 47 1395 37 hstemhm
          113 389 -367 41 932 389 hintmask 11101000
          805 217 callgsubr
          -443 -249 -193 -319 -367 325 -194 232 -359 hvcurveto
          -117 hlineto
          hintmask 11011000
          -180 -137 98 285 -60 hvcurveto
          -47 hlineto
          4 -39 2 -51 -57 vvcurveto
          -56 -4 -114 -10 -113 vhcurveto
          90 6 127 0 88 84 96 -4 115 hflex1
          33 vlineto
          hintmask 11101000
          -76 149 -143 344 400 vvcurveto
          323 78 193 225 225 78 -193 -323 -400 -143 -344 -76 -149 vhcurveto
          -33 vlineto
          115 2 96 4 84 88 127 0 90 hflex1
          -10 113 -4 114 56 vvcurveto
          57 2 51 4 39 vhcurveto
          -47 hlineto
          -285 -60 -137 -98 -180 hhcurveto
          -117 hlineto
          231 359 326 194 367 vvcurveto
          319 -250 193 -442 vhcurveto
          endchar
        </CharString>
        <CharString name="Oslash">
          22 callsubr
          1423 1577 rmoveto
          -39 27 -141 -208 rlineto
          54 -112 -133 29 -150 hhcurveto
          -455 -319 -308 -458 -282 111 -211 190 -123 hvcurveto
          -172 -238 43 -29 173 240 rlineto
          -65 118 145 -34 164 hhcurveto
          454 320 308 458 298 -124 218 -210 120 hvcurveto
          -446 69 rmoveto
          106 96 -85 -150 65 hvcurveto
          -550 -882 rlineto
          -33 109 -20 134 153 vvcurveto
          424 131 297 205 vhcurveto
          14 -1434 rmoveto
          -111 -100 93 163 -65 hvcurveto
          550 887 rlineto
          39 -113 23 -143 -166 vvcurveto
          -424 -131 -297 -205 vhcurveto
          endchar
        </CharString>
        <CharString name="Otilde">
          362 -29 37 1434 37 88 140 callgsubr
          294 callgsubr
          hintmask 11011100
          654 30 callsubr
          hintmask 11101100
          -37 callgsubr
          14 rlineto
          -77 -59 -66 -31 -73 hhcurveto
          hintmask 11011100
          -177 -57 170 callsubr
          194 -442 -101 callgsubr
        </CharString>
        <CharString name="P">
          -13 callgsubr
        </CharString>
        <CharString name="Q">
          362 -385 250 -229 -21 180 125 56 32 1434 37 hstemhm
          294 callgsubr
          hintmask 01111110
          1587 74 rmoveto
          hintmask 10011110
          -69 -105 -78 -43 -150 -32 rrcurveto
          -22 -106 -108 -7 -138 hhcurveto
          -104 -121 4 4 -150 hvcurveto
          124 34 64 48 122 16 rrcurveto
          440 12 307 305 449 vvcurveto
          469 -309 273 -463 -455 -319 -308 -458 -432 262 -266 404 -39 vhcurveto
          hintmask 01111110
          -82 -28 -65 -39 -101 -26 rrcurveto
          23 -52 -59 14 -45 hhcurveto
          -76 -37 -24 -39 -43 41 -19 55 54 65 21 30 54 hvcurveto
          10 22 -8 -6 17 hvcurveto
          -98 235 213 -119 232 hhcurveto
          96 98 25 47 62 hvcurveto
          86 65 49 135 14 176 rrcurveto
          -1122 658 rmoveto
          424 131 297 205 192 158 -277 -436 -424 -131 -297 -205 -192 -158 277 436 vhcurveto
          endchar
        </CharString>
        <CharString name="R">
          104 callgsubr
          1501 109 228 callsubr
          -26 hhcurveto
          -47 -25 31 102 -20 hvcurveto
          -43 213 -32 167 -136 84 -280 16 rlinecurve
          391 38 110 179 180 vvcurveto
          241 -201 115 -416 vhcurveto
          -53 -139 -4 -137 hhcurveto
          -131 -144 2 4 -78 hvcurveto
          -41 vlineto
          -107 callsubr
          471 93 vlineto
          104 35 -123 -168 24 hvcurveto
          31 -204 rlineto
          hintmask 11111100
          -11 callsubr
          endchar
        </CharString>
        <CharString name="Racute">
          104 callgsubr
          985 -58 callsubr
          516 -1577 228 callsubr
          -26 hhcurveto
          -47 -25 31 102 -20 hvcurveto
          -43 213 -32 167 -136 84 -280 16 rlinecurve
          391 38 110 179 180 vvcurveto
          241 -201 115 -416 vhcurveto
          -53 -139 -4 -137 hhcurveto
          -131 -144 2 4 -78 hvcurveto
          -41 vlineto
          -107 callsubr
          471 93 vlineto
          104 35 -123 -168 24 hvcurveto
          31 -204 rlineto
          hintmask 11111100
          -11 callsubr
          endchar
        </CharString>
        <CharString name="Rcaron">
          104 callgsubr
          713 90 callsubr
          825 -1445 228 callsubr
          -26 hhcurveto
          -47 -25 31 102 -20 hvcurveto
          -43 213 -32 167 -136 84 -280 16 rlinecurve
          391 38 110 179 180 vvcurveto
          241 -201 115 -416 vhcurveto
          -53 -139 -4 -137 hhcurveto
          -131 -144 2 4 -78 hvcurveto
          -41 vlineto
          -107 callsubr
          471 93 vlineto
          104 35 -123 -168 24 hvcurveto
          31 -204 rlineto
          hintmask 11111100
          -11 callsubr
          endchar
        </CharString>
        <CharString name="Rcommaaccent">
          145 -364 -21 377 -21 29 41 647 41 680 39 92 callsubr
          -18 372 -46 430 hintmask 10111101
          1501 109 228 callsubr
          -26 hhcurveto
          -47 -25 31 102 -20 hvcurveto
          -43 213 -32 167 -136 84 -280 16 rlinecurve
          391 38 110 179 180 vvcurveto
          241 -201 115 -416 vhcurveto
          -53 -139 -4 -137 hhcurveto
          -131 -144 2 4 -78 hvcurveto
          -41 vlineto
          -107 callsubr
          471 93 vlineto
          104 35 -123 -168 24 hvcurveto
          31 -204 rlineto
          hintmask 11111101
          -11 callsubr
          hintmask 10111010
          53 -1503 rmoveto
          -102 callgsubr
          110 -77 58 -113 vhcurveto
          endchar
        </CharString>
        <CharString name="S">
          15 callsubr
          618 1479 -99 callgsubr
        </CharString>
        <CharString name="Sacute">
          15 callsubr
          799 1923 -89 callsubr
          -181 -444 -99 callgsubr
        </CharString>
        <CharString name="Sacute.loclPLK">
          -77 -29 62 -26 -21 1437 56 -21 -20 hstemhm
          109 47 -45 378 102 265 -82 408 -127 47 hintmask 1010101010000000
          776 -72 callgsubr
          -158 -503 rmoveto
          hintmask 1010010100000000
          -264 -243 -119 -268 -226 170 -118 194 -130 hvcurveto
          174 -116 125 -99 -170 vvcurveto
          -127 -96 -73 -150 vhcurveto
          hintmask 1010101010000000
          -262 -94 258 289 -16 hvcurveto
          -47 hlineto
          hintmask 0110101010000000
          -351 -3 -139 -6 -104 vhcurveto
          47 hlineto
          59 9 10 31 27 hhcurveto
          hintmask 1010010100000000
          16 20 -8 -21 33 hvcurveto
          -37 76 100 -39 187 hhcurveto
          299 258 129 277 223 -150 113 -182 127 hvcurveto
          -258 180 -103 61 152 vvcurveto
          123 89 67 120 vhcurveto
          hintmask 1010101010000000
          213 129 -239 -226 15 hvcurveto
          47 hlineto
          hintmask 1001101010000000
          308 4 104 6 88 vhcurveto
          -47 hlineto
          -59 -8 -10 -31 -27 hhcurveto
          hintmask 1010101010000000
          -19 -18 10 19 -33 hvcurveto
          39 -69 -86 43 -177 hhcurveto
          endchar
        </CharString>
        <CharString name="Scaron">
          15 callsubr
          1088 -69 callsubr
          -480 -428 -99 callgsubr
        </CharString>
        <CharString name="Scedilla">
          -77 -385 53 304 61 -26 -21 1437 56 -21 -20 hstemhm
          109 47 -45 378 203 270 -188 408 -127 47 hintmask 0000000000000000
          hintmask 1101001010000000
          1182 377 rmoveto
          223 -150 113 -182 127 vhcurveto
          -258 180 -103 61 152 vvcurveto
          123 89 67 120 vhcurveto
          hintmask 1101010001000000
          213 129 -239 -226 15 hvcurveto
          47 hlineto
          hintmask 1100110001000000
          308 4 104 6 88 vhcurveto
          -47 hlineto
          -59 -8 -10 -31 -27 hhcurveto
          hintmask 1101001010000000
          -19 -18 10 19 -33 hvcurveto
          39 -69 -86 43 -177 hhcurveto
          38 callgsubr
          hintmask 1101010101000000
          16 20 -8 -21 33 hvcurveto
          70 -34 90 -36 159 -5 -55 -189 rcurveline
          -68 callgsubr
          28 94 rlineto
          hintmask 1101001010000000
          294 3 252 129 274 vvcurveto
          endchar
        </CharString>
        <CharString name="Scircumflex">
          15 callsubr
          623 1958 -103 callsubr
          -42 -479 -99 callgsubr
        </CharString>
        <CharString name="Scommaaccent">
          -77 -364 -21 356 62 -26 -21 1437 56 -21 -20 hstemhm
          109 47 -45 378 -34 372 -53 408 -127 47 hintmask 1101010001000000
          618 217 callgsubr
          hintmask 1101001010000000
          38 callgsubr
          hintmask 1101001010000000
          16 20 -8 -21 33 hvcurveto
          -37 76 100 -39 187 hhcurveto
          299 258 129 277 223 -150 113 -182 127 hvcurveto
          -258 180 -103 61 152 vvcurveto
          123 89 67 120 vhcurveto
          hintmask 1101010001000000
          213 129 -239 -226 15 hvcurveto
          47 hlineto
          hintmask 1100110001000000
          308 4 104 6 88 vhcurveto
          -47 hlineto
          -59 -8 -10 -31 -27 hhcurveto
          hintmask 1101010001000000
          -19 -18 10 19 -33 hvcurveto
          39 -69 -86 43 -177 hhcurveto
          hintmask 1101010101000000
          19 -1573 rmoveto
          -102 callgsubr
          110 -77 58 -113 vhcurveto
          endchar
        </CharString>
        <CharString name="T">
          100 0 41 1362 171 callsubr
          -62 callsubr
          endchar
        </CharString>
        <CharString name="Tbar">
          100 0 41 668 41 653 171 callsubr
          80 callgsubr
          -653 -260 -41 260 -478 78 callgsubr
          92 2 159 4 170 179 174 -4 96 102 callgsubr
          -39 22 168 hvcurveto
          478 233 41 -233 653 2 vlineto
          -18 callsubr
          endchar
        </CharString>
        <CharString name="Tcaron">
          100 0 41 1362 171 callsubr
          1164 -69 callsubr
          210 -457 -55 callgsubr
          endchar
        </CharString>
        <CharString name="Tcedilla">
          100 -385 53 332 314 callsubr
          -141 270 276 41 hintmask 11110100
          80 callgsubr
          -1172 78 callgsubr
          2 88 150 4 163 hhcurveto
          -65 -223 rlineto
          hintmask 11101100
          -68 callgsubr
          38 129 166 -1 158 -3 90 -2 rlinecurve
          41 vlineto
          hintmask 11110100
          -188 -39 22 168 hvcurveto
          1172 2 vlineto
          -18 callsubr
          endchar
        </CharString>
        <CharString name="Thorn">
          -5 0 41 270 41 783 39 235 41 hstem
          -7 callsubr
          252 430 vstem
          618 311 rmoveto
          21 hlineto
          522 139 226 247 267 -200 123 -416 hvcurveto
          -66 -1 rlineto
          60 vlineto
          149 21 21 125 6 vhcurveto
          41 vlineto
          -80 -4 -135 -2 -127 -148 -139 2 -78 hflex1
          -41 vlineto
          -107 callsubr
          15 918 rmoveto
          176 61 -129 -244 -219 -43 -191 -209 hvcurveto
          783 vlineto
          endchar
        </CharString>
        <CharString name="U">
          87 -29 72 1366 41 50 callgsubr
          hintmask 00000000
          hintmask 11110000
          1395 1450 238 callsubr
          -56 hflex1
          -41 vlineto
          hintmask 11101000
          -106 callsubr
        </CharString>
        <CharString name="Uacute">
          87 -29 72 1366 41 50 callgsubr
          hintmask 11101000
          897 1923 -89 callsubr
          hintmask 11110000
          498 -473 238 callsubr
          -56 hflex1
          -41 vlineto
          hintmask 11101000
          -106 callsubr
        </CharString>
        <CharString name="Ubreve">
          239 callsubr
          113 202 50 callgsubr
          hintmask 11110100
          1183 -27 callgsubr
          hintmask 11111000
          187 -412 238 callsubr
          -56 hflex1
          -41 vlineto
          hintmask 11110100
          -106 callsubr
        </CharString>
        <CharString name="Ucircumflex">
          87 -29 72 1366 41 50 callgsubr
          hintmask 11101000
          721 1958 -103 callsubr
          hintmask 11110000
          637 -508 238 callsubr
          -56 hflex1
          -41 vlineto
          hintmask 11101000
          -106 callsubr
        </CharString>
        <CharString name="Udieresis">
          87 -29 313 callsubr
          -291 129 callgsubr
          -186 400 -193 47 hintmask 00000000
          hintmask 11011010
          475 -23 callsubr
          hintmask 11100100
          392 -467 238 callsubr
          -56 hflex1
          -41 vlineto
          hintmask 11100010
          -106 callsubr
        </CharString>
        <CharString name="Ugrave">
          87 -29 72 1366 41 50 callgsubr
          hintmask 11101000
          553 -11 callgsubr
          hintmask 11110000
          842 -473 238 callsubr
          -56 hflex1
          -41 vlineto
          hintmask 11101000
          -106 callsubr
        </CharString>
        <CharString name="Uhungarumlaut">
          87 -29 72 1366 41 50 callgsubr
          hintmask 11101000
          632 1931 rmoveto
          -71 -53 -31 -46 callsubr
          465 hmoveto
          -72 -53 -30 -46 callsubr
          hintmask 11110000
          298 -481 238 callsubr
          -56 hflex1
          -41 vlineto
          hintmask 11101000
          -106 callsubr
        </CharString>
        <CharString name="Umacron">
          239 callsubr
          227 52 50 callgsubr
          hintmask 11110100
          1181 138 callsubr
          hintmask 11111000
          1099 -227 238 callsubr
          -56 hflex1
          -41 vlineto
          hintmask 11110100
          -106 callsubr
        </CharString>
        <CharString name="Uogonek">
          87 229 callgsubr
          233 313 callsubr
          -125 272 260 400 -193 47 hintmask 11110010
          1225 1444 rmoveto
          hintmask 11110100
          -76 -98 2 4 -56 hvcurveto
          -41 vlineto
          hintmask 11110010
          195 -27 12 -59 -274 vvcurveto
          -476 vlineto
          -315 -84 -215 -274 -170 -86 84 270 vhcurveto
          836 vlineto
          149 26 21 140 6 vhcurveto
          41 vlineto
          -84 -4 -142 -2 -141 -141 -142 2 -77 hflex1
          -41 vlineto
          125 -6 20 -54 callgsubr
          -643 vlineto
          -252 27 -166 141 -102 vhcurveto
          -78 109 151 -21 125 hhcurveto
          1 hlineto
          hintmask 11101010
          -167 -47 -96 -72 -92 35 callsubr
          55 56 72 156 56 hvcurveto
          104 32 69 56 45 75 rrcurveto
          66 108 18 156 170 vvcurveto
          494 vlineto
          231 21 61 125 27 vhcurveto
          hintmask 11110100
          41 vlineto
          hintmask 11110010
          -4 -41 -68 -2 -61 hhcurveto
          endchar
        </CharString>
        <CharString name="Uring">
          239 callsubr
          172 43 329 43 hstemhm
          172 416 -86 57 363 57 16 400 -193 47 hintmask 1111101010000000
          739 2037 rmoveto
          hintmask 1111011010000000
          69 callsubr
          hvcurveto
          hintmask 1111101010000000
          316 callsubr
          79 -127 vhcurveto
          hintmask 1111011010000000
          -43 300 callgsubr
          -106 -111 280 callgsubr
          111 106 94 59 86 hvcurveto
          hintmask 1111101100000000
          656 -544 238 callsubr
          -56 hflex1
          -41 vlineto
          hintmask 1111101010000000
          -106 callsubr
        </CharString>
        <CharString name="Utilde">
          239 callsubr
          117 219 -82 217 50 callgsubr
          hintmask 11011010
          549 30 callsubr
          hintmask 11101010
          -37 callgsubr
          14 rlineto
          -77 -59 -66 -31 -73 hhcurveto
          hintmask 11011010
          -177 -57 170 callsubr
          hintmask 11011100
          846 -471 238 callsubr
          -56 hflex1
          -41 vlineto
          hintmask 11011010
          -106 callsubr
        </CharString>
        <CharString name="V">
          87 21 -21 1409 41 hstemhm
          -33 1477 -426 426 hintmask 11100000
          1286 1444 rmoveto
          hintmask 11010000
          6 callgsubr
          104 -4 63 -51 -128 vvcurveto
          -74 -21 -99 -46 -131 vhcurveto
          -198 -558 -355 873 rlineto
          -17 42 -8 31 24 vvcurveto
          60 52 11 92 4 vhcurveto
          41 vlineto
          294 callsubr
          298 callgsubr
          -99 214 callgsubr
          45 -35 39 -94 537 -1278 rcurveline
          32 2 37 2 37 37 39 -2 33 hflex1
          399 1122 61 174 80 82 64 31 258 callgsubr
        </CharString>
        <CharString name="W">
          81 callsubr
          1927 1444 rmoveto
          hintmask 11010000
          -100 callgsubr
          hintmask 11100000
          -4 -41 -64 -2 -53 hhcurveto
          endchar
        </CharString>
        <CharString name="Wacute">
          81 callsubr
          1360 -58 callsubr
          567 -242 rmoveto
          hintmask 11010000
          -100 callgsubr
          hintmask 11100000
          -4 -41 -64 -2 -53 hhcurveto
          endchar
        </CharString>
        <CharString name="Wcircumflex">
          81 callsubr
          1034 1700 -75 callgsubr
          893 -256 rmoveto
          hintmask 11010000
          -100 callgsubr
          hintmask 11100000
          -4 -41 -64 -2 -53 hhcurveto
          endchar
        </CharString>
        <CharString name="Wdieresis">
          736 21 -21 1409 41 hstem
          633 129 callgsubr
          142 426 vstem
          811 -22 callgsubr
          588 -117 rmoveto
          -100 callgsubr
          79 callsubr
        </CharString>
        <CharString name="Wgrave">
          81 callsubr
          762 -40 callsubr
          1165 -242 rmoveto
          hintmask 11010000
          -100 callgsubr
          hintmask 11100000
          -4 -41 -64 -2 -53 hhcurveto
          endchar
        </CharString>
        <CharString name="X">
          -51 callgsubr
        </CharString>
        <CharString name="Y">
          98 callsubr
          1145 1446 -86 callsubr
        </CharString>
        <CharString name="Yacute">
          98 callsubr
          998 -58 callsubr
          147 -240 -86 callsubr
        </CharString>
        <CharString name="Ycircumflex">
          98 callsubr
          672 1700 -75 callgsubr
          473 -254 -86 callsubr
        </CharString>
        <CharString name="Ydieresis">
          -13 0 134 callgsubr
          43 hstemhm
          271 356 -148 416 -96 356 -278 426 hintmask 00000000
          hintmask 11101000
          449 -22 callgsubr
          168 -115 rmoveto
          hintmask 11000100
          6 callgsubr
          98 -4 66 -41 -107 vvcurveto
          -70 -29 -99 -68 -136 vhcurveto
          -93 -185 -292 562 rlineto
          -6 12 -3 11 8 vvcurveto
          46 79 1 86 vhcurveto
          43 vlineto
          -137 -6 -175 -6 -139 -110 -88 4 -84 -9 callsubr
          28 43 -29 -86 47 hvcurveto
          hintmask 11010000
          379 -700 rlineto
          -377 84 callgsubr
          74 4 141 2 139 127 146 -2 79 -19 callgsubr
          545 vlineto
          190 377 rlineto
          hintmask 11000100
          312 callsubr
          hintmask 11101000
          79 callsubr
        </CharString>
        <CharString name="Ygrave">
          98 callsubr
          400 -40 callsubr
          745 -240 -86 callsubr
        </CharString>
        <CharString name="Z">
          -89 214 callsubr
          hstem
          76 1089 vstem
          1149 1409 -83 callsubr
        </CharString>
        <CharString name="Zacute">
          -89 214 callsubr
          hstem
          76 1089 vstem
          785 1923 -89 callsubr
          364 -514 -83 callsubr
        </CharString>
        <CharString name="Zacute.loclPLK">
          -89 214 callsubr
          hstemhm
          577 265 hintmask 00000000
          hintmask 11100000
          762 -72 callgsubr
          387 -573 -83 callsubr
        </CharString>
        <CharString name="Zcaron">
          -89 214 callsubr
          hstem
          76 1089 vstem
          1074 -69 callsubr
          65 -498 -83 callsubr
        </CharString>
        <CharString name="Zdotaccent">
          -89 214 callsubr
          hstem
          404 446 vstem
          627 1999 rmoveto
          -52 callsubr
          522 -590 -83 callsubr
        </CharString>
        <CharString name="a">
          119 callsubr
          48 callsubr
          hintmask 11011000
          557 1092 rmoveto
          -82 callsubr
          hintmask 11101000
          -93 callsubr
          hintmask 11011000
          82 -78 -113 21 -143 hhcurveto
          33 -908 rmoveto
          -26 -25 -22 -8 -29 hhcurveto
          hintmask 11101000
          -25 callsubr
        </CharString>
        <CharString name="a.smcp">
          37 callgsubr
          709 1245 -10 callsubr
          hintmask 11110000
          -105 callsubr
        </CharString>
        <CharString name="aacute">
          119 callsubr
          153 -20 48 callsubr
          hintmask 11101100
          779 -88 callgsubr
          -222 -587 -88 callsubr
        </CharString>
        <CharString name="aacute.smcp">
          37 callgsubr
          900 -57 callsubr
          -191 -248 -10 callsubr
          hintmask 11110000
          -105 callsubr
        </CharString>
        <CharString name="abreve">
          119 callsubr
          163 244 48 callsubr
          hintmask 11101100
          922 -27 callsubr
          -400 -503 -88 callsubr
        </CharString>
        <CharString name="abreve.smcp">
          70 callsubr
          151 203 283 callsubr
          653 94 callgsubr
          56 -131 -10 callsubr
          hintmask 11111000
          -105 callsubr
        </CharString>
        <CharString name="acircumflex">
          119 callsubr
          178 -20 48 callsubr
          hintmask 11101100
          532 -76 callsubr
          -12 -612 -88 callsubr
        </CharString>
        <CharString name="acircumflex.smcp">
          37 callgsubr
          616 1491 -75 callgsubr
          93 -246 -10 callsubr
          hintmask 11110000
          -105 callsubr
        </CharString>
        <CharString name="acute">
          -875 1245 -20 hstem
          41 417 vstem
          416 -88 callgsubr
          endchar
        </CharString>
        <CharString name="acute.case">
          -769 1581 356 hstem
          0 528 vstem
          324 1923 -89 callsubr
          endchar
        </CharString>
        <CharString name="acute.loclPLK">
          -980 1219 480 hstemhm
          57 269 hintmask 00000000
          hintmask 11000000
          248 -71 callsubr
          endchar
        </CharString>
        <CharString name="acute.loclPLK.case">
          -1017 1554 440 301 callgsubr
          -72 callgsubr
          endchar
        </CharString>
        <CharString name="acute.loclPLK.smcp">
          -1017 1432 439 301 callgsubr
          -72 callsubr
          endchar
        </CharString>
        <CharString name="acute.smcp">
          -769 1389 355 hstem
          168 528 vstem
          492 -87 callgsubr
          endchar
        </CharString>
        <CharString name="adieresis">
          119 callsubr
          hstemhm
          45 365 -308 365 -336 357 102 368 -339 356 hintmask 11001100
          310 1581 rmoveto
          -99 -80 -84 -94 -98 80 -80 99 3 callsubr
          hintmask 11010010
          21 callsubr
          -240 -489 rmoveto
          108 callsubr
          -73 -39 -54 -63 -86 vvcurveto
          -101 66 -78 102 119 78 76 96 93 -49 59 -88 33 vhcurveto
          20 30 43 15 35 hhcurveto
          hintmask 11100100
          131 21 -105 -63 hvcurveto
          -183 vlineto
          -92 -125 -41 -160 -57 vhcurveto
          -93 callsubr
          hintmask 11010010
          82 -78 -113 21 -143 hhcurveto
          hintmask 11100100
          152 callsubr
        </CharString>
        <CharString name="adieresis.smcp">
          70 callsubr
          hstemhm
          -35 426 -178 129 callgsubr
          hintmask 11101100
          391 1411 rmoveto
          -48 callsubr
          528 hmoveto
          -48 callsubr
          -210 -166 -10 callsubr
          hintmask 11110100
          -105 callsubr
        </CharString>
        <CharString name="ae">
          165 -29 224 -203 -21 36 -21 647 39 372 48 -41 41 hstemhm
          51 365 -328 365 118 383 -379 373 197 299 hintmask 0000000000000000
          hintmask 1001100110100000
          1169 195 rmoveto
          -100 -115 75 289 25 0 25 1 24 hvcurveto
          489 hlineto
          330 -139 129 -228 -125 -103 -35 -61 -79 vhcurveto
          70 -68 -75 26 -133 hhcurveto
          -107 -94 -25 -41 -78 hvcurveto
          -74 -39 -53 -63 -86 vvcurveto
          -101 66 -78 102 119 78 76 96 vhcurveto
          hintmask 0011010101100000
          93 -50 59 -88 33 vhcurveto
          20 31 43 15 35 hhcurveto
          131 20 -105 -63 hvcurveto
          -183 vlineto
          -92 -116 -43 -148 -55 vhcurveto
          hintmask 0011101001100000
          -180 -61 -80 -89 -139 vvcurveto
          -141 94 -94 164 168 94 74 117 74 vhcurveto
          hintmask 0101100101100000
          -148 81 140 -58 158 hhcurveto
          231 127 183 165 50 hvcurveto
          -35 13 rlineto
          hintmask 1001100110100000
          -125 -82 -94 -12 -52 hhcurveto
          hintmask 0011101001100000
          -106 849 rmoveto
          61 23 -172 -200 -2 hvcurveto
          -197 hlineto
          271 11 41 101 63 hhcurveto
          -543 -862 rmoveto
          -78 -26 54 73 94 49 64 51 59 hvcurveto
          hintmask 0011100110100000
          25 29 22 33 12 28 rrcurveto
          -2 vlineto
          -3 -27 -1 -28 -29 vvcurveto
          -130 20 -104 36 -81 vhcurveto
          hintmask 0011101001100000
          -26 -33 -32 -7 -42 hhcurveto
          endchar
        </CharString>
        <CharString name="ae.smcp">
          421 0 41 -41 162 callsubr
          hstemhm
          -31 324 318 callgsubr
          hintmask 01110010
          1657 7 callgsubr
          -90 -166 0 2 -163 hvcurveto
          66 109 rlineto
          -47 hlineto
          -65 -108 -52 1 -51 1 -47 1 rlinecurve
          hintmask 10101110
          -41 vlineto
          54 -3 35 -5 22 -18 -608 -1006 rcurveline
          -54 -88 -45 -41 -43 -2 rrcurveto
          hintmask 01110110
          -41 vlineto
          35 4 55 2 47 269 callsubr
          -50 21 50 vvcurveto
          25 12 32 24 40 vhcurveto
          236 393 rlineto
          332 -389 hlineto
          hintmask 01110010
          -94 callsubr
          207 6 281 0 127 131 184 133 callsubr
          -10 113 -4 114 56 vvcurveto
          -903 364 rmoveto
          -307 hlineto
          296 492 rlineto
          8 -25 3 -36 -50 vvcurveto
          endchar
        </CharString>
        <CharString name="agrave">
          119 callsubr
          48 callsubr
          hintmask 11011000
          291 -44 callsubr
          266 -587 rmoveto
          -82 callsubr
          hintmask 11101000
          -93 callsubr
          hintmask 11011000
          82 -78 -113 21 -143 hhcurveto
          33 -908 rmoveto
          -26 -25 -22 -8 -29 hhcurveto
          hintmask 11101000
          -25 callsubr
        </CharString>
        <CharString name="agrave.smcp">
          37 callgsubr
          346 -40 callgsubr
          363 -248 -10 callsubr
          hintmask 11110000
          -105 callsubr
        </CharString>
        <CharString name="amacron">
          119 callsubr
          315 51 48 callsubr
          hintmask 11101100
          905 160 callsubr
          373 -315 -88 callsubr
        </CharString>
        <CharString name="amacron.smcp">
          70 callsubr
          305 51 283 callsubr
          1093 138 callgsubr
          501 -285 -10 callsubr
          hintmask 11111000
          -105 callsubr
        </CharString>
        <CharString name="ampersand">
          589 -29 254 99 38 502 105 458 37 -26 41 hstemhm
          68 284 -92 211 203 80 -39 362 -133 389 -57 389 -102 79 179 75 hintmask 1100110100011000
          1896 1182 rmoveto
          188 -137 109 -207 vhcurveto
          hintmask 1100110100101000
          -192 -84 -82 -111 -96 74 -62 120 113 82 52 100 59 -43 64 -84 31 hvcurveto
          2 16 19 2 20 hhcurveto
          109 119 -66 -106 -123 -160 -45 -236 -39 hvcurveto
          -61 -8 -57 -13 -60 -8 rrcurveto
          -348 -51 -225 -117 -260 vvcurveto
          -184 143 -94 195 vhcurveto
          hintmask 1110110101011000
          194 127 57 135 96 -69 62 -121 -113 -86 -53 -101 -59 25 -64 84 -30 hvcurveto
          -2 -17 -18 -3 -21 hhcurveto
          -120 -123 66 100 113 147 47 285 51 hvcurveto
          47 9 49 8 51 8 49 7 46 9 43 9 rrcurveto
          92 -68 0 -101 -51 vvcurveto
          -233 -318 -111 -264 -403 -226 107 262 158 76 92 109 78 vhcurveto
          -23 26 47 -35 45 hhcurveto
          31 27 17 28 35 -23 25 -49 hvcurveto
          hintmask 1111001010011000
          -31 -30 -6 -13 -45 hvcurveto
          -52 70 -12 72 51 vvcurveto
          194 123 90 145 43 49 -6 -10 29 vhcurveto
          -88 -22 -57 -72 -76 vvcurveto
          -98 78 -45 98 102 84 61 94 107 -88 53 -67 23 vhcurveto
          18 -54 -53 10 -106 hhcurveto
          -191 -258 -67 -205 -141 123 -68 125 -45 hvcurveto
          hintmask 1110110100011000
          -123 -29 -317 -116 -312 vvcurveto
          -315 294 -195 519 442 319 199 311 141 -55 119 -83 56 vhcurveto
          hintmask 1100110100011000
          249 62 143 110 213 vvcurveto
          endchar
        </CharString>
        <CharString name="ampersand.smcp">
          575 -29 193 78 39 434 104 418 37 82 41 hstemhm
          66 448 -276 272 162 362 -280 80 190 389 -160 389 -40 59 137 76 hintmask 1101100010011000
          1874 1085 rmoveto
          211 -137 101 -209 vhcurveto
          hintmask 1101100010101000
          -191 -84 -84 -107 -98 72 -61 123 113 81 53 94 72 -49 57 -77 29 hvcurveto
          2 16 18 2 21 hhcurveto
          108 119 -64 -112 -154 -225 -29 -143 -30 hvcurveto
          -70 -15 -70 -16 -69 -14 rrcurveto
          -203 -43 -264 -84 -269 vvcurveto
          -190 131 -94 221 vhcurveto
          hintmask 1111110011011000
          172 135 57 135 96 -70 62 -120 -113 -86 -53 -103 -55 25 -66 84 -30 hvcurveto
          -2 -17 -18 -2 -21 hhcurveto
          -121 -122 65 100 119 172 41 266 51 hvcurveto
          71 15 70 12 72 14 18 3 18 4 20 5 rrcurveto
          32 -38 29 -44 -91 vvcurveto
          -304 -308 -69 -260 -336 -184 115 290 93 18 57 23 53 vhcurveto
          -22 27 47 -35 45 hhcurveto
          31 26 14 33 31 -22 26 -50 hvcurveto
          hintmask 1111101100011000
          -30 -31 0 -18 -45 hvcurveto
          -43 61 0 66 45 vvcurveto
          180 121 84 102 33 33 -8 -8 18 vhcurveto
          -94 -25 -51 -72 -75 vvcurveto
          -95 78 -47 96 108 80 60 98 106 -92 52 -61 22 vhcurveto
          19 -52 -53 10 -84 hhcurveto
          -196 -258 -55 -181 -135 143 -69 145 -46 hvcurveto
          hintmask 1111110010011000
          -133 -24 -327 -115 -270 vvcurveto
          -260 299 -148 460 512 324 183 321 104 -34 89 -54 51 vhcurveto
          hintmask 1101100010011000
          142 43 159 95 228 vvcurveto
          endchar
        </CharString>
        <CharString name="aogonek">
          -245 229 callgsubr
          269 -21 1065 41 hstemhm
          45 365 -308 365 70 273 -220 315 callsubr
          hintmask 11100100
          892 -262 rmoveto
          -54 -28 22 56 53 32 70 107 53 hvcurveto
          14 7 10 5 8 5 35 12 30 17 27 23 rrcurveto
          hintmask 11101010
          -20 35 rlineto
          -14 -19 -20 -16 -25 hhcurveto
          -22 -9 22 66 hvcurveto
          548 vlineto
          142 -10 86 -57 59 vhcurveto
          82 -78 -113 21 -143 hhcurveto
          -82 callsubr
          hintmask 11110100
          -180 -59 -80 -91 -139 vvcurveto
          -141 94 -94 164 127 109 61 94 57 vhcurveto
          -82 2 55 -73 154 hhcurveto
          6 hlineto
          -175 -47 -101 -76 -103 105 callsubr
          -26 31 rlineto
          hintmask 11100100
          -27 -31 -59 -20 -45 hhcurveto
          hintmask 11110010
          -302 446 rmoveto
          -26 -25 -22 -8 -29 hhcurveto
          -25 callsubr
        </CharString>
        <CharString name="aogonek.smcp">
          -34 -385 123 262 120 callgsubr
          hstemhm
          -35 426 338 272 hintmask 00000000
          hintmask 11111100
          1226 4 rmoveto
          36 -1 33 -2 26 -1 rrcurveto
          41 vlineto
          -37 2 -39 35 -45 94 -491 1073 rcurveline
          -23 -3 -22 -2 -23 -23 -23 2 -22 hflex1
          -419 -964 -74 -168 -51 -62 -64 -10 rlinecurve
          169 callgsubr
          64 2 53 94 72 -2 102 -80 callsubr
          -108 4 -82 28 119 vvcurveto
          59 20 82 48 113 vhcurveto
          384 hlineto
          101 -233 rlineto
          18 -38 8 -30 -24 vvcurveto
          -55 -45 -21 -80 -4 288 callsubr
          43 44 0 -1 42 hvcurveto
          -262 -43 -158 -84 -118 36 callsubr
          56 60 75 165 57 hvcurveto
          -590 483 rmoveto
          -349 hlineto
          174 403 rlineto
          endchar
        </CharString>
        <CharString name="approxequal">
          77 276 293 -94 293 -76 293 -94 293 hstemhm
          106 1197 hintmask 00000000
          hintmask 00011000
          459 1184 rmoveto
          -176 -154 -193 -295 -23 hvcurveto
          37 -6 rlineto
          146 58 106 55 123 hhcurveto
          hintmask 00101000
          205 139 -199 217 hhcurveto
          156 137 185 282 19 hvcurveto
          -37 6 rlineto
          -131 -45 -82 -49 -99 hhcurveto
          hintmask 00011000
          -213 -143 199 -225 hhcurveto
          hintmask 01001000
          -41 -416 rmoveto
          -156 -137 -184 -283 -19 hvcurveto
          37 -6 rlineto
          131 45 82 49 99 hhcurveto
          hintmask 10001000
          213 143 -199 225 hhcurveto
          176 154 193 295 23 hvcurveto
          -37 6 rlineto
          -145 -58 -106 -56 -123 hhcurveto
          hintmask 01001000
          -205 -139 199 -217 hhcurveto
          endchar
        </CharString>
        <CharString name="aring">
          119 callsubr
          133 43 329 43 hstemhm
          45 365 -308 365 -153 57 219 368 -224 57 hintmask 0000000000000000
          hintmask 1111001010000000
          551 12 callgsubr
          6 -505 rmoveto
          108 callsubr
          hintmask 1111010100000000
          -73 -39 -54 -63 -86 vvcurveto
          -101 66 -78 102 119 78 76 96 93 -49 59 -88 33 vhcurveto
          20 30 43 15 35 hhcurveto
          131 21 -105 -63 hvcurveto
          -183 vlineto
          -92 -125 -41 -160 -57 vhcurveto
          hintmask 1111100100000000
          -93 callsubr
          hintmask 1111001010000000
          82 -78 -113 21 -143 hhcurveto
          hintmask 1111100100000000
          152 callsubr
        </CharString>
        <CharString name="aring.smcp">
          70 callsubr
          151 43 330 43 hstemhm
          -35 426 27 57 363 57 hintmask 11111011
          655 1376 rmoveto
          127 113 80 129 316 callsubr
          80 -127 -125 -112 -80 -127 -129 112 -80 125 hvcurveto
          373 124 callsubr
          54 -504 -10 callsubr
          hintmask 11111111
          -105 callsubr
        </CharString>
        <CharString name="arrowboth">
          50 524 33 hstem
          51 1280 vstem
          872 924 rmoveto
          58 -122 29 -120 2 -125 rrcurveto
          -539 hlineto
          2 125 29 120 57 122 85 callgsubr
          -56 121 -29 120 -3 125 rrcurveto
          539 hlineto
          -3 -125 -29 -120 -57 -121 rrcurveto
          35 hlineto
          94 207 136 118 194 58 -194 57 -136 119 -94 207 rrcurveto
          endchar
        </CharString>
        <CharString name="arrowdown">
          -320 1 -21 hstem
          489 33 vstem
          506 829 rmoveto
          262 callgsubr
          207 -94 119 -135 57 -195 57 195 119 135 207 94 251 callsubr
          -184 vmoveto
          262 callgsubr
          188 -86 116 -119 62 -168 rrcurveto
          -258 vlineto
          -125 3 -120 29 -121 56 rrcurveto
          -35 vlineto
          207 -94 119 -135 57 -194 57 194 119 135 207 94 rrcurveto
          35 vlineto
          -122 -57 -120 -29 -125 -2 rrcurveto
          256 vlineto
          62 169 116 120 189 86 251 callsubr
          endchar
        </CharString>
        <CharString name="arrowdownleft">
          69 1 -21 490 32 98 33 hstem
          624 32 98 33 vstem
          735 582 rmoveto
          35 76 17 76 83 vvcurveto
          89 -20 96 -42 112 vhcurveto
          -25 -24 rlineto
          36 -95 18 -89 -85 vvcurveto
          -105 -28 -100 -54 -98 vhcurveto
          54 99 100 28 105 hhcurveto
          84 88 -17 -36 95 hvcurveto
          25 24 rlineto
          42 -112 -97 20 -89 hhcurveto
          -82 -76 -17 -34 -77 hvcurveto
          -131 -131 rmoveto
          35 77 17 77 83 vvcurveto
          89 -20 96 -40 110 vhcurveto
          -25 -25 rlineto
          35 -94 18 -88 -84 vvcurveto
          -87 -19 -84 -38 -83 vhcurveto
          -183 -185 -86 92 -64 104 -48 126 rlinecurve
          -24 -24 rlineto
          36 -95 17 -88 -84 vvcurveto
          -105 -28 -100 -54 -99 vhcurveto
          54 98 100 28 105 hhcurveto
          85 89 -18 -36 95 hvcurveto
          24 25 -126 47 -105 64 -91 87 rlinecurve
          183 182 rlineto
          38 84 85 19 89 hhcurveto
          83 87 -17 -35 94 hvcurveto
          25 24 rlineto
          40 -110 -97 20 -89 hhcurveto
          -83 -77 -17 -34 -77 hvcurveto
          endchar
        </CharString>
        <CharString name="arrowdownright">
          69 1 -21 491 32 98 33 456 -20 hstem
          614 33 98 32 vstem
          729 519 rmoveto
          -54 98 -28 100 105 vvcurveto
          84 18 89 36 95 vhcurveto
          -25 24 rlineto
          -42 -112 -20 -96 -89 vvcurveto
          -82 17 -76 35 -77 vhcurveto
          35 -77 -76 17 -83 hhcurveto
          -89 -96 -20 -42 -112 hvcurveto
          25 -25 rlineto
          36 95 89 18 84 hhcurveto
          105 100 -28 -54 98 hvcurveto
          486 57 rmoveto
          -48 -126 -64 -105 -86 -92 -183 185 rcurveline
          -38 83 -19 84 88 vvcurveto
          84 18 88 35 94 vhcurveto
          -25 24 rlineto
          -40 -110 -20 -96 -88 vvcurveto
          -84 17 -77 35 -77 vhcurveto
          35 -77 -78 17 -83 hhcurveto
          -89 -96 -20 -40 -110 hvcurveto
          25 -25 rlineto
          35 94 88 18 83 hhcurveto
          89 84 -20 -38 83 hvcurveto
          184 -182 -91 -87 -105 -64 -126 -47 rlinecurve
          24 -24 rlineto
          35 95 88 18 85 hhcurveto
          105 100 -28 -54 99 hvcurveto
          -54 99 -28 100 105 vvcurveto
          84 17 88 36 95 vhcurveto
          endchar
        </CharString>
        <CharString name="arrowleft">
          63 524 33 hstem
          51 1221 vstem
          717 541 rmoveto
          164 61 110 115 96 207 rrcurveto
          -34 hlineto
          -87 -189 -120 -116 -169 -62 rrcurveto
          -255 hlineto
          2 125 29 120 57 122 85 callgsubr
          -56 121 -29 120 -3 125 rrcurveto
          258 hlineto
          167 -63 119 -114 87 -189 rrcurveto
          34 hlineto
          -96 207 -110 114 -164 62 rrcurveto
          184 hmoveto
          164 61 111 115 96 207 85 callgsubr
          -96 207 -111 114 -164 62 rrcurveto
          endchar
        </CharString>
        <CharString name="arrowright">
          63 524 33 hstem
          123 1221 vstem
          582 541 rmoveto
          289 callsubr
          -35 hlineto
          96 -207 111 -115 164 -61 -164 -62 -111 -114 -96 -207 259 callgsubr
          rrcurveto
          303 383 rmoveto
          57 -122 29 -120 2 -125 rrcurveto
          -255 hlineto
          -169 62 -120 116 -87 189 rrcurveto
          -34 hlineto
          96 -207 110 -115 164 -61 -164 -62 -110 -114 -96 -207 rrcurveto
          34 hlineto
          87 189 119 114 167 63 rrcurveto
          258 hlineto
          -3 -125 -29 -120 -56 -121 259 callgsubr
          289 callsubr
          endchar
        </CharString>
        <CharString name="arrowup">
          -320 1 -21 hstem
          489 33 vstem
          889 776 rmoveto
          -207 94 -119 136 -57 194 -57 -194 -119 -136 -207 -94 rrcurveto
          -35 vlineto
          121 57 120 29 125 2 rrcurveto
          -257 vlineto
          -62 -168 -116 -119 -188 -86 rrcurveto
          -35 vlineto
          207 96 114 111 62 164 61 -164 115 -111 207 -96 rrcurveto
          35 vlineto
          -189 86 -116 120 -62 169 rrcurveto
          255 vlineto
          125 -2 120 -28 122 -58 rrcurveto
          -383 -303 rmoveto
          -57 -194 -119 -135 -207 -95 rrcurveto
          -34 vlineto
          207 96 114 110 62 164 61 -164 115 -110 207 -96 rrcurveto
          34 vlineto
          -207 95 -119 135 -57 194 rrcurveto
          endchar
        </CharString>
        <CharString name="arrowupleft">
          277 callgsubr
          624 32 98 33 vstem
          1112 676 rmoveto
          -35 -94 -88 -18 -83 hhcurveto
          -89 -84 20 38 -83 hvcurveto
          -184 182 91 87 105 64 126 47 rlinecurve
          -24 24 rlineto
          -35 -95 -88 -18 -85 hhcurveto
          -105 -100 28 54 -99 hvcurveto
          54 -99 28 -100 -105 vvcurveto
          -84 -17 -88 -36 -95 vhcurveto
          24 -25 48 126 64 105 86 92 rlinecurve
          183 -185 rlineto
          38 -83 19 -84 -88 vvcurveto
          -84 -18 -88 -35 -94 vhcurveto
          25 -24 rlineto
          40 110 20 96 88 vvcurveto
          84 -17 77 -35 77 vhcurveto
          -35 77 78 -17 83 hhcurveto
          89 96 20 40 110 hvcurveto
          106 -104 rmoveto
          -36 -95 -89 -18 -84 hhcurveto
          -105 -100 28 54 -98 hvcurveto
          54 -98 28 -100 -105 vvcurveto
          -84 -18 -89 -36 -95 vhcurveto
          25 -24 rlineto
          42 112 20 96 89 vvcurveto
          82 -17 76 -35 77 vhcurveto
          -35 77 76 -17 83 hhcurveto
          89 96 20 42 112 hvcurveto
          endchar
        </CharString>
        <CharString name="arrowupright">
          277 callgsubr
          614 33 98 32 vstem
          1268 1114 rmoveto
          -54 -99 -100 -28 -105 hhcurveto
          -85 -88 18 35 -95 hvcurveto
          -24 -24 126 -47 105 -64 91 -87 rlinecurve
          -184 -182 rlineto
          -38 -83 -84 -20 -89 hhcurveto
          -83 -88 18 35 -94 hvcurveto
          -25 -25 rlineto
          -40 110 96 -20 89 hhcurveto
          83 78 17 35 77 hvcurveto
          -35 -77 -17 -77 -84 vvcurveto
          -88 20 -96 40 -110 vhcurveto
          25 24 rlineto
          -35 94 -18 88 84 vvcurveto
          88 19 84 38 83 vhcurveto
          183 185 86 -92 64 -105 48 -126 rlinecurve
          24 25 rlineto
          -36 95 -17 88 84 vvcurveto
          105 28 100 54 99 vhcurveto
          -1135 -592 rmoveto
          -42 112 96 -20 89 hhcurveto
          83 76 17 35 77 hvcurveto
          -35 -77 -17 -76 -82 vvcurveto
          -89 20 -96 42 -112 vhcurveto
          25 24 rlineto
          -36 95 -18 89 84 vvcurveto
          105 28 100 54 98 vhcurveto
          -54 -98 -100 -28 -105 hhcurveto
          -84 -89 18 36 -95 hvcurveto
          endchar
        </CharString>
        <CharString name="asciicircum">
          -259 1081 -20 hstem
          94 885 vstem
          518 1081 rmoveto
          -96 -163 -158 -170 -170 -101 17 -29 rcurveline
          147 29 152 49 86 45 102 -45 184 -49 181 -29 16 29 rcurveline
          -172 103 -160 170 -92 161 rrcurveto
          endchar
        </CharString>
        <CharString name="asciicircum.case">
          -427 1065 -20 434 -20 hstem
          -51 1007 vstem
          434 217 callgsubr
          -108 -156 -183 -162 -194 -96 10 -31 rcurveline
          172 41 182 76 99 70 114 -70 215 -76 205 -41 10 31 rcurveline
          -196 98 -185 162 -104 154 rrcurveto
          endchar
        </CharString>
        <CharString name="asciicircum.smcp">
          -136 endchar
        </CharString>
        <CharString name="asciitilde">
          63 399 232 -33 231 hstemhm
          102 1196 hintmask 01100000
          434 829 -2 callsubr
        </CharString>
        <CharString name="asciitilde.case">
          -222 514 232 -33 231 hstemhm
          -43 1196 hintmask 01100000
          289 944 -2 callsubr
        </CharString>
        <CharString name="asciitilde.smcp">
          61 411 232 -33 231 hstemhm
          100 1196 hintmask 01100000
          432 841 -2 callsubr
        </CharString>
        <CharString name="asterisk">
          -363 1062 -20 33 -20 23 -20 hstemhm
          371 231 hintmask 00000000
          hintmask 10010000
          821 1001 rmoveto
          -62 37 -108 2 -145 22 151 23 100 0 64 37 rrcurveto
          42 24 16 32 32 vvcurveto
          23 -8 24 -13 21 vhcurveto
          34 -19 -32 29 -43 hhcurveto
          -18 -20 -6 -12 -21 hvcurveto
          hintmask 00110000
          -64 -38 -55 -92 -92 -115 rrcurveto
          55 143 51 87 74 vvcurveto
          82 -57 29 -58 -57 -59 -29 -82 vhcurveto
          hintmask 01010000
          -75 53 -95 54 -137 vhcurveto
          -96 121 -50 87 -66 38 rrcurveto
          13 -22 -20 5 -18 hhcurveto
          -42 -32 -28 -35 -19 hvcurveto
          -12 -20 -8 -23 -23 vvcurveto
          hintmask 00110000
          -33 16 -33 43 -24 vhcurveto
          63 -38 110 -1 147 -22 -154 -23 -101 1 -65 -38 rrcurveto
          -42 -24 -16 -31 -32 vvcurveto
          -23 8 -24 13 -21 vhcurveto
          -34 18 33 -29 42 hhcurveto
          19 20 6 12 21 hvcurveto
          64 38 55 93 93 115 rrcurveto
          -57 -143 -50 -87 -76 vvcurveto
          -82 57 -28 59 56 59 28 82 76 -54 94 -54 139 vhcurveto
          97 -122 50 -87 66 -38 rrcurveto
          -13 22 20 -5 18 hhcurveto
          41 32 28 35 20 hvcurveto
          12 20 8 23 23 vvcurveto
          hintmask 10010000
          33 -16 32 -43 24 vhcurveto
          -336 59 rmoveto
          -1 1 rlineto
          2 hlineto
          endchar
        </CharString>
        <CharString name="at">
          487 -330 238 callgsubr
          88 352 37 hstemhm
          86 264 callgsubr
          hintmask 11011111
          1141 53 -56 callgsubr
          225 callsubr
          170 callgsubr
          hvcurveto
          hintmask 10111111
          179 callgsubr
          vhcurveto
          -4 -21 -2 -20 -19 vvcurveto
          hintmask 11011111
          -81 38 -66 134 vhcurveto
          hintmask 10111111
          41 callgsubr
        </CharString>
        <CharString name="at.case">
          487 -219 238 callgsubr
          59 -59 88 352 37 hstemhm
          86 264 callgsubr
          hintmask 1100111110000000
          1141 164 -56 callgsubr
          hintmask 1101011110000000
          225 callsubr
          hintmask 1010111110000000
          170 callgsubr
          179 callgsubr
          hvcurveto
          -4 -21 -2 -20 -19 vvcurveto
          hintmask 1100111110000000
          -81 38 -66 134 vhcurveto
          hintmask 1010111110000000
          41 callgsubr
        </CharString>
        <CharString name="at.smcp">
          474 -330 238 callgsubr
          88 352 37 hstemhm
          78 264 callgsubr
          hintmask 11011111
          1133 53 -56 callgsubr
          225 callsubr
          170 callgsubr
          hvcurveto
          hintmask 10111111
          179 callgsubr
          vhcurveto
          -4 -21 -2 -20 -19 vvcurveto
          hintmask 11011111
          -81 38 -66 134 vhcurveto
          hintmask 10111111
          41 callgsubr
        </CharString>
        <CharString name="atilde">
          119 callsubr
          168 239 -102 237 48 callsubr
          hintmask 00000000
          hintmask 11100010
          376 57 callgsubr
          hintmask 11010010
          213 callsubr
          hintmask 11100010
          -20 callsubr
          hintmask 11010110
          181 -542 rmoveto
          -82 callsubr
          hintmask 11011010
          -93 callsubr
          hintmask 11010110
          82 -78 -113 21 -143 hhcurveto
          33 -908 rmoveto
          -26 -25 -22 -8 -29 hhcurveto
          hintmask 11011010
          -25 callsubr
        </CharString>
        <CharString name="atilde.smcp">
          70 callsubr
          178 140 callgsubr
          -35 256 callgsubr
          1356 hintmask 11101010
          386 1540 rmoveto
          hintmask 11110010
          -37 callgsubr
          15 rlineto
          -78 -59 -66 -31 -73 hhcurveto
          hintmask 11101010
          -176 -58 170 callsubr
          32 callgsubr
          323 -295 -10 callsubr
          hintmask 11101100
          -105 callsubr
        </CharString>
        <CharString name="b">
          -101 -29 41 -24 -21 42 -21 997 107 444 37 hstemhm
          129 369 284 383 hintmask 10011110
          809 202 callgsubr
          664 vlineto
          31 callgsubr
          -1256 vlineto
          hintmask 00111110
          -39 -2 -36 -12 -37 vhcurveto
          hintmask 01011110
          28 -21 rlineto
          hintmask 10011110
          35 37 76 24 84 hhcurveto
          48 60 callsubr
        </CharString>
        <CharString name="b.smcp">
          61 0 47 586 35 536 35 hstemhm
          -1 callsubr
          234 401 -303 409 hintmask 11110100
          821 668 rmoveto
          hintmask 11111000
          301 57 113 96 142 vvcurveto
          184 -156 96 -379 vhcurveto
          -57 -147 -4 -146 hhcurveto
          -106 -119 2 4 -66 hvcurveto
          -41 vlineto
          123 -6 23 -18 -152 vvcurveto
          -811 207 callsubr
          189 135 -6 70 hflex1
          hintmask 11110100
          391 202 119 217 164 -114 125 -406 39 hvcurveto
          -131 540 rmoveto
          hintmask 11111000
          105 39 -92 -172 -154 -39 -118 -160 hvcurveto
          -35 360 hlineto
          hintmask 11110100
          141 14 35 76 vhcurveto
          2 -1157 rmoveto
          -78 -14 27 143 hvcurveto
          416 70 vlineto
          188 74 -105 -184 -192 -72 -105 -168 hvcurveto
          endchar
        </CharString>
        <CharString name="backslash">
          -582 -8 -21 1508 -20 hstem
          62 625 vstem
          129 217 callgsubr
          -67 hlineto
          557 -1508 rlineto
          68 hlineto
          endchar
        </CharString>
        <CharString name="bar">
          -771 -378 -21 hstem
          158 245 vstem
          403 -399 rmoveto
          2156 -245 -2156 vlineto
          endchar
        </CharString>
        <CharString name="blacksquare">
          -195 104 852 hstem
          162 813 279 callgsubr
          endchar
        </CharString>
        <CharString name="blacksquare.case">
          -171 303 852 hstem
          154 854 vstem
          1008 303 rmoveto
          852 -854 -852 vlineto
          endchar
        </CharString>
        <CharString name="blacksquare.smcp">
          -118 197 852 hstem
          180 854 vstem
          1034 197 rmoveto
          852 -854 -852 vlineto
          endchar
        </CharString>
        <CharString name="braceleft">
          270 callsubr
          188 369 vstem
          700 283 callgsubr
          -374 -138 -113 -361 -385 -30 -104 314 callgsubr
          -10 30 -105 -383 vvcurveto
          -377 138 -104 374 vhcurveto
          39 vlineto
          -116 2 -27 37 403 vvcurveto
          367 -231 104 -246 45 vhcurveto
          246 45 231 103 368 vvcurveto
          388 27 43 116 4 vhcurveto
          endchar
        </CharString>
        <CharString name="braceleft.case">
          276 callgsubr
          193 374 vstem
          649 283 callgsubr
          -332 -124 -107 -293 -352 -31 -96 -125 -9 hvcurveto
          -10 -36 10 hlineto
          125 -11 31 -96 -350 vvcurveto
          -311 124 -93 332 vhcurveto
          39 vlineto
          -67 2 -15 33 330 vvcurveto
          338 -198 96 -285 41 vhcurveto
          285 41 198 94 340 vvcurveto
          314 15 43 67 4 vhcurveto
          endchar
        </CharString>
        <CharString name="braceleft.smcp">
          274 callsubr
          205 368 vstem
          717 1364 rmoveto
          -375 -137 -90 -248 -303 -31 -70 314 callgsubr
          -8 31 -70 -303 vvcurveto
          -252 137 -94 375 vhcurveto
          39 vlineto
          -117 4 -27 41 262 vvcurveto
          297 -231 68 -246 35 vhcurveto
          246 35 231 67 297 vvcurveto
          258 27 37 117 4 vhcurveto
          endchar
        </CharString>
        <CharString name="braceright">
          270 callsubr
          166 369 vstem
          23 1563 rmoveto
          116 -4 27 -43 -388 vvcurveto
          -368 231 -103 246 -45 vhcurveto
          -246 -45 -231 -104 -367 vvcurveto
          -403 -27 -37 -116 -2 vhcurveto
          -39 vlineto
          374 138 104 377 383 30 105 125 10 hvcurveto
          10 37 -10 hlineto
          -125 8 -30 104 385 vvcurveto
          361 -138 113 -374 vhcurveto
          endchar
        </CharString>
        <CharString name="braceright.case">
          276 callgsubr
          138 374 vstem
          56 1563 rmoveto
          67 -4 15 -43 -314 vvcurveto
          -340 198 -94 285 -41 vhcurveto
          -285 -41 -198 -96 -338 vvcurveto
          -330 -15 -33 -67 -2 vhcurveto
          -39 vlineto
          332 124 93 311 350 31 96 125 11 hvcurveto
          10 36 -10 hlineto
          -125 9 -31 96 352 vvcurveto
          293 -124 107 -332 vhcurveto
          endchar
        </CharString>
        <CharString name="braceright.smcp">
          274 callsubr
          189 368 vstem
          45 1325 rmoveto
          117 -4 27 -37 -258 vvcurveto
          -297 231 -67 246 -35 vhcurveto
          -246 -35 -231 -68 -297 vvcurveto
          -262 -27 -41 -117 -4 vhcurveto
          -39 vlineto
          375 137 94 252 303 31 70 125 8 hvcurveto
          10 37 -10 hlineto
          -125 8 -31 70 303 vvcurveto
          248 -137 90 -375 vhcurveto
          endchar
        </CharString>
        <CharString name="bracketleft">
          315 callgsubr
          160 368 vstem
          612 1542 rmoveto
          39 -452 -1952 452 39 -84 1874 vlineto
          endchar
        </CharString>
        <CharString name="bracketleft.case">
          302 callgsubr
          164 375 vstem
          623 1542 rmoveto
          39 -459 -1712 459 39 -84 1634 vlineto
          endchar
        </CharString>
        <CharString name="bracketleft.smcp">
          308 callgsubr
          174 369 vstem
          627 1317 rmoveto
          39 -453 -1467 453 39 -84 1389 vlineto
          endchar
        </CharString>
        <CharString name="bracketright">
          315 callgsubr
          168 368 vstem
          536 1581 rmoveto
          -452 -39 84 -1874 -84 -39 452 hlineto
          endchar
        </CharString>
        <CharString name="bracketright.case">
          302 callgsubr
          170 375 vstem
          545 1581 rmoveto
          -459 -39 84 -1634 -84 -39 459 hlineto
          endchar
        </CharString>
        <CharString name="bracketright.smcp">
          308 callgsubr
          180 369 vstem
          549 1356 rmoveto
          -453 -39 84 -1389 -84 -39 453 hlineto
          endchar
        </CharString>
        <CharString name="breve">
          -455 1255 244 hstem
          31 815 vstem
          811 -27 callsubr
          endchar
        </CharString>
        <CharString name="breve.case">
          -414 1563 202 hstem
          -51 979 vstem
          903 -27 callgsubr
          endchar
        </CharString>
        <CharString name="breve.smcp">
          -414 1376 203 hstem
          -31 979 vstem
          924 -26 callgsubr
          endchar
        </CharString>
        <CharString name="brevecy">
          -322 1214 41 hstem
          41 356 215 357 vstem
          791 1634 rmoveto
          -105 -74 -73 -105 -82 52 -59 75 -27 hvcurveto
          -22 -75 -93 -11 -67 hhcurveto
          -70 -92 11 20 -76 hvcurveto
          76 27 55 59 84 vvcurveto
          105 -78 73 -100 -108 -70 -73 -105 -78 53 -61 62 -33 vhcurveto
          -43 80 118 -27 150 hhcurveto
          147 119 27 43 80 hvcurveto
          61 33 58 61 78 vvcurveto
          105 -74 73 -104 vhcurveto
          endchar
        </CharString>
        <CharString name="brevecy.case">
          -199 1561 41 hstemhm
          41 213 callgsubr
          hintmask 00000000
          hintmask 11100000
          893 1939 rmoveto
          -117 -82 -67 -88 -76 60 -51 88 -23 hvcurveto
          -22 -88 -109 -10 -80 hhcurveto
          -82 -108 10 20 -88 hvcurveto
          80 21 71 49 82 vvcurveto
          90 82 callsubr
          -37 82 135 -30 172 hhcurveto
          170 135 30 127 callsubr
          vhcurveto
          endchar
        </CharString>
        <CharString name="brevecy.smcp">
          -199 1376 41 33 -20 hstemhm
          41 213 callgsubr
          hintmask 00000000
          hintmask 11110000
          893 1755 rmoveto
          224 callgsubr
          hvcurveto
          127 callgsubr
          -37 82 135 -31 172 hhcurveto
          170 135 31 127 callsubr
          vhcurveto
          endchar
        </CharString>
        <CharString name="brokenbar">
          -763 -378 -21 hstem
          162 246 vstem
          408 786 rmoveto
          971 -246 -971 vlineto
          246 -1185 rmoveto
          1067 -246 -1067 vlineto
          endchar
        </CharString>
        <CharString name="bullet">
          -277 172 311 callgsubr
          932 40 callsubr
        </CharString>
        <CharString name="bullet.case">
          -277 350 311 callgsubr
          1110 40 callsubr
        </CharString>
        <CharString name="bullet.smcp">
          -326 248 760 hstem
          122 760 vstem
          501 1008 40 callsubr
        </CharString>
        <CharString name="c">
          193 callgsubr
          164 callgsubr
          588 1092 rmoveto
          -81 callgsubr
          134 callsubr
        </CharString>
        <CharString name="c.smcp">
          30 callgsubr
          760 1274 -94 callgsubr
        </CharString>
        <CharString name="cacute">
          193 callgsubr
          153 -20 164 callgsubr
          783 -88 callgsubr
          -195 -587 rmoveto
          -81 callgsubr
          134 callsubr
        </CharString>
        <CharString name="cacute.loclPLK">
          193 callgsubr
          hstemhm
          61 383 78 269 -195 385 hintmask 11110000
          713 -71 callsubr
          -125 -596 rmoveto
          79 callgsubr
          220 -146 274 244 133 183 165 51 hvcurveto
          -35 13 rlineto
          -125 -90 -102 -12 -56 hhcurveto
          -120 -136 75 289 205 43 268 195 37 26 -10 -14 19 hvcurveto
          hintmask 11101000
          -38 callsubr
          hintmask 11110000
          134 callsubr
        </CharString>
        <CharString name="cacute.loclPLK.smcp">
          34 -29 62 -12 -21 1212 62 113 callsubr
          184 265 274 47 -24 39 hintmask 10101110
          850 -72 callsubr
          -90 -586 -13 callsubr
        </CharString>
        <CharString name="cacute.smcp">
          30 callgsubr
          854 -87 callgsubr
          -94 -457 -94 callgsubr
        </CharString>
        <CharString name="caron">
          -509 1241 463 hstem
          10 803 vstem
          797 -57 callgsubr
          endchar
        </CharString>
        <CharString name="caron.case">
          -468 1554 243 callgsubr
          885 -69 callsubr
          endchar
        </CharString>
        <CharString name="caron.smcp">
          -468 1350 243 callgsubr
          885 -68 callsubr
          endchar
        </CharString>
        <CharString name="ccaron">
          193 callgsubr
          164 callgsubr
          920 -57 callgsubr
          -348 -583 rmoveto
          -81 callgsubr
          134 callsubr
        </CharString>
        <CharString name="ccaron.smcp">
          30 callgsubr
          1186 -68 callsubr
          -436 -428 -94 callgsubr
        </CharString>
        <CharString name="ccedilla">
          299 callgsubr
          224 -202 -21 25 -21 1056 60 hstemhm
          61 383 96 270 -214 385 hintmask 00000000
          hintmask 10101101
          555 -29 rmoveto
          244 133 183 165 51 hvcurveto
          -35 13 rlineto
          hintmask 11001101
          -125 -90 -102 -12 -56 hhcurveto
          -120 -136 75 289 205 43 268 195 37 26 -10 -14 19 hvcurveto
          -38 callsubr
          145 callsubr
          2 callsubr
          hvcurveto
          hintmask 10011110
          -369 176 -156 233 -29 vhcurveto
          -55 -193 rlineto
          13 callgsubr
          hvcurveto
          hintmask 10101110
          237 callgsubr
          vhcurveto
          27 95 rlineto
          endchar
        </CharString>
        <CharString name="ccedilla.smcp">
          34 299 callgsubr
          62 -61 61 -12 -21 1212 62 113 callsubr
          357 270 96 47 -24 39 hintmask 1100101010000000
          1219 451 rmoveto
          -21 -146 -16 -67 -58 -70 rrcurveto
          -84 -69 -103 -51 -100 hhcurveto
          -207 -164 205 380 371 140 223 217 100 92 -55 -80 72 hvcurveto
          57 -63 17 -49 28 -150 rrcurveto
          47 hlineto
          hintmask 1100011010000000
          217 2 121 7 92 vhcurveto
          -48 hlineto
          -83 -7 -16 -41 -29 hhcurveto
          -11 -13 7 13 -16 hvcurveto
          hintmask 1010101110000000
          69 -82 -86 64 -192 hhcurveto
          -385 -303 -266 -398 -393 273 -230 380 -15 hvcurveto
          -53 -189 rlineto
          10 18 27 4 23 hhcurveto
          59 39 -14 -37 -55 -98 -23 -90 -50 -47 6 4 -22 hvcurveto
          -13 -36 rlineto
          -17 50 73 -10 82 hhcurveto
          223 162 55 119 hvcurveto
          hintmask 1100101101000000
          68 -55 51 -117 -69 -58 -10 -21 -55 vhcurveto
          26 94 164 3 107 61 84 69 rlinecurve
          13 16 13 7 12 hhcurveto
          hintmask 1001101001000000
          28 16 -41 -83 7 hvcurveto
          47 hlineto
          -6 96 -2 127 228 vvcurveto
          endchar
        </CharString>
        <CharString name="ccircumflex">
          193 callgsubr
          178 -20 164 callgsubr
          536 -76 callsubr
          15 -612 rmoveto
          -81 callgsubr
          134 callsubr
        </CharString>
        <CharString name="ccircumflex.smcp">
          30 callgsubr
          719 1749 -103 callsubr
          4 -475 -94 callgsubr
        </CharString>
        <CharString name="cdotaccent">
          193 callgsubr
          hstemhm
          61 383 -112 446 -182 385 hintmask 00000000
          hintmask 11010000
          555 283 callgsubr
          -52 callsubr
          33 -510 rmoveto
          hintmask 11101000
          -81 callgsubr
          hintmask 11010000
          134 callsubr
        </CharString>
        <CharString name="cdotaccent.smcp">
          34 -29 62 -12 -21 1212 62 113 callsubr
          47 405 271 47 -24 39 hintmask 10101110
          731 11 callsubr
          29 -491 -13 callsubr
        </CharString>
        <CharString name="cedilla">
          -865 -385 53 129 203 hstemhm
          -25 508 -270 270 hintmask 11100000
          205 hmoveto
          -55 hlineto
          -62 -217 rlineto
          hintmask 11010000
          13 callgsubr
          237 callgsubr
          hvcurveto
          endchar
        </CharString>
        <CharString name="cedilla.case">
          -828 219 callgsubr
          209 10 rmoveto
          -55 hlineto
          -66 -227 rlineto
          hintmask 11010000
          -68 callgsubr
          endchar
        </CharString>
        <CharString name="cedilla.smcp">
          -865 219 callgsubr
          207 10 rmoveto
          -55 hlineto
          -64 -227 rlineto
          hintmask 11010000
          -68 callgsubr
          endchar
        </CharString>
        <CharString name="cent">
          -277 -350 -21 363 -21 1061 60 358 -20 248 callsubr
          84 45 23 385 hintmask 11111100
          950 332 rmoveto
          -125 -90 -102 -12 -56 hhcurveto
          -43 -44 9 26 -40 hvcurveto
          766 vlineto
          23 30 36 13 43 hhcurveto
          37 26 -10 -14 19 hvcurveto
          hintmask 11111110
          -38 callsubr
          hintmask 11111100
          145 callsubr
          -15 358 -45 -360 hlineto
          -267 -22 -200 -171 -367 vvcurveto
          -399 206 -150 261 -10 vhcurveto
          -342 45 342 vlineto
          233 9 127 178 50 161 rrcurveto
          -539 240 rmoveto
          133 18 159 66 96 vhcurveto
          -679 vlineto
          -50 54 -34 92 145 vvcurveto
          endchar
        </CharString>
        <CharString name="cent.smcp">
          -107 94 58 910 -20 52 57 303 -20 hstem
          61 390 198 41 383 39 vstem
          1065 492 rmoveto
          -21 -136 -16 -61 -57 -66 rrcurveto
          -53 -56 -92 -24 -84 hhcurveto
          -17 -16 2 3 -16 hvcurveto
          934 vlineto
          2 11 12 1 12 hhcurveto
          84 86 -27 -51 53 hvcurveto
          53 -60 21 -45 29 -137 rrcurveto
          47 hlineto
          187 2 102 6 80 vhcurveto
          -47 hlineto
          -53 -7 -20 -28 -29 hhcurveto
          -11 -12 3 8 -13 hvcurveto
          -67 37 -80 38 -130 3 rrcurveto
          303 -41 -303 vlineto
          -338 -9 -250 -196 -336 vvcurveto
          -347 235 -163 353 -6 vhcurveto
          -303 41 303 vlineto
          135 4 80 37 76 39 rrcurveto
          8 14 13 3 10 hhcurveto
          31 17 -30 -53 7 hvcurveto
          47 hlineto
          -6 84 -2 109 197 vvcurveto
          -661 126 rmoveto
          249 75 166 123 47 vhcurveto
          -909 vlineto
          -116 50 -82 153 244 vvcurveto
          endchar
        </CharString>
        <CharString name="circumflex">
          -509 1270 -20 hstem
          10 803 vstem
          393 -76 callsubr
          endchar
        </CharString>
        <CharString name="circumflex.case">
          -468 1575 243 callgsubr
          414 1958 -103 callsubr
          endchar
        </CharString>
        <CharString name="circumflex.smcp">
          -468 1366 243 callgsubr
          414 1749 -103 callsubr
          endchar
        </CharString>
        <CharString name="colon">
          -705 -8 -21 1121 -20 hstem
          111 406 vstem
          314 1092 -87 callsubr
          -768 vmoveto
          156 callgsubr
        </CharString>
        <CharString name="comma">
          -763 -8 -21 hstem
          419 70 vstem
          276 324 rmoveto
          -114 -63 callsubr
          148 68 69 131 137 75 callsubr
          endchar
        </CharString>
        <CharString name="commaaccentcomb">
          -1332 -362 -21 hstem
          31 372 vstem
          213 -92 rmoveto
          -102 callgsubr
          110 -81 58 218 callsubr
        </CharString>
        <CharString name="commaaccentcomb.case">
          -1332 -364 -21 hstem
          31 372 vstem
          213 -94 rmoveto
          -102 callgsubr
          110 -77 58 -113 vhcurveto
          endchar
        </CharString>
        <CharString name="commaaccentcomb.smcp">
          -902 -362 -21 hstem
          31 372 vstem
          213 -92 rmoveto
          -102 callgsubr
          113 -81 55 218 callsubr
        </CharString>
        <CharString name="copyright">
          454 -29 66 190 162 875 -20 50 54 188 66 hstemhm
          78 82 260 383 151 385 287 82 hintmask 1110111010000000
          893 283 callgsubr
          -451 -364 -365 -451 -450 364 -365 451 450 365 365 450 451 -365 365 -450 hvcurveto
          -66 vmoveto
          405 328 -336 -414 -413 -328 -336 -405 -406 -327 336 413 414 327 336 406 hvcurveto
          hintmask 1111111110000000
          53 -188 rmoveto
          -297 -229 -168 -394 -413 219 -146 274 244 133 183 165 51 hvcurveto
          -34 13 rlineto
          -180 -90 -103 -19 -55 hhcurveto
          -121 -135 88 338 338 55 107 86 26 hvcurveto
          6 21 20 2 21 hhcurveto
          47 45 -14 -16 24 hvcurveto
          -90 -25 -78 -78 -102 vvcurveto
          -109 68 -76 121 114 82 87 112 94 -51 74 -71 45 vhcurveto
          31 -56 -96 31 -119 hhcurveto
          endchar
        </CharString>
        <CharString name="currency">
          38 29 1171 -1069 266 437 266 hstemhm
          201 295 383 290 hintmask 10011000
          1272 948 rmoveto
          hintmask 01111000
          0 callgsubr
        </CharString>
        <CharString name="currency.smcp">
          7 135 266 662 -20 hstem
          185 295 383 290 vstem
          1256 952 rmoveto
          0 callgsubr
        </CharString>
        <CharString name="d">
          224 callsubr
          444 37 248 callsubr
          285 369 hintmask 10011110
          1100 283 callgsubr
          31 callgsubr
          -316 vlineto
          36 -55 -67 16 -91 48 callgsubr
          hintmask 01011110
          -145 vlineto
          hintmask 00111110
          115 callgsubr
          hintmask 10011110
          60 callgsubr
        </CharString>
        <CharString name="d.smcp">
          229 0 37 1171 93 callgsubr
          -811 1 callsubr
          -10 -37 rmoveto
          272 92 -190 -387 -385 -80 -209 -282 -95 -18 33 143 hvcurveto
          819 vlineto
          142 18 34 93 vhcurveto
          endchar
        </CharString>
        <CharString name="dagger">
          -570 1253 93 hstemhm
          305 152 -111.699996948 71.1000061035 hintmask 10100000
          381 1346 rmoveto
          -51 -11 -60 -33 hvcurveto
          46 306 callsubr
          -41 262 45 hhcurveto
          33 -10 60 -51 vhcurveto
          317 -414 rmoveto
          -77 51 -240 -51 -240 51 -78 -51 78 -51 240 49 240 -49 rlineto
          hintmask 11000000
          262 callsubr
          -219 10 -770 66 -118 vhcurveto
          63 118 13 770 219 vvcurveto
          -35 23 0 39 -12 41 rrcurveto
          endchar
        </CharString>
        <CharString name="daggerdbl">
          -554 -340 92 1501 93 hstemhm
          313 152 -111.429992676 71.3300018311 hintmask 11010000
          389 1346 rmoveto
          -51 -10 -60 -33 hvcurveto
          45 306 callsubr
          -40 262 45 hhcurveto
          33 -11 60 -51 vhcurveto
          318 -414 195 callsubr
          hintmask 11100000
          262 callsubr
          0 -96 2 23 9 -207 -9 -207 -2 12 -96 flex1
          35 -22 -2 -39 14 -41 29 -13 rcurveline
          29 13 12 41 0 39 35 22 rlinecurve
          0 96 -2 -12 -8 207 8 209 2 -25 96 flex1
          -35 23 0 39 -12 41 rrcurveto
          289 -817 195 callsubr
          hintmask 11010000
          -248 20 rmoveto
          -29 -49 41 -262 -45 hhcurveto
          -33 10 -59 51 51 11 59 33 vhcurveto
          -45 40 262 29 -49 hvcurveto
          endchar
        </CharString>
        <CharString name="dcaron">
          224 callsubr
          444 37 -33 42 248 callsubr
          285 369 125 227 hintmask 1001101100000000
          1212 1153 rmoveto
          hintmask 1001011110000000
          146 176 94 113 80 vvcurveto
          24 -4 45 -6 15 vhcurveto
          -13 -59 -53 -11 -90 hhcurveto
          -17 -19 0 1 -20 hvcurveto
          -43 vlineto
          34 7 -29 -53 -37 -9 -75 -32 -185 hvcurveto
          hintmask 1001101100000000
          -84 441 rmoveto
          31 callgsubr
          -316 vlineto
          36 -55 -67 16 -91 48 callgsubr
          hintmask 0101101100000000
          -145 vlineto
          hintmask 0011101100000000
          115 callgsubr
          hintmask 1001101100000000
          60 callgsubr
        </CharString>
        <CharString name="dcaron.smcp">
          229 0 37 1171 37 hstem
          -1 callsubr
          475 410 vstem
          1172 -68 callsubr
          -461 -457 rmoveto
          -96 -162 -4 -2 -113 hvcurveto
          -19 -20 -1 -20 hhcurveto
          -89 -89 4 3 -54 hvcurveto
          -41 vlineto
          123 -6 23 -18 -152 vvcurveto
          -811 1 callsubr
          -10 -37 rmoveto
          272 92 -190 -387 -385 -80 -209 -282 -95 -18 33 143 hvcurveto
          819 vlineto
          142 18 34 93 vhcurveto
          endchar
        </CharString>
        <CharString name="dcroat">
          224 callsubr
          153 41 250 37 248 callsubr
          285 369 hintmask 10011111
          1100 1245 rmoveto
          135 41 -135 316 hlineto
          31 callgsubr
          -70 -323 -41 323 -205 vlineto
          36 -55 -67 16 -91 48 callgsubr
          hintmask 01011111
          -145 vlineto
          hintmask 00111111
          115 callgsubr
          hintmask 10011111
          60 callgsubr
        </CharString>
        <CharString name="dcroat.smcp">
          229 0 37 569 41 561 93 callgsubr
          -381 -146 -41 146 -389 1 callsubr
          -8 -1208 rmoveto
          -95 -18 33 143 hvcurveto
          393 254 41 -254 385 vlineto
          142 18 34 93 272 92 -190 -387 -385 -80 -209 -282 vhcurveto
          endchar
        </CharString>
        <CharString name="degree">
          -724 1186 35 424 34 hstem
          55 51 396 51 vstem
          303 1679 rmoveto
          -131 -117 -94 -151 -154 117 -94 131 133 117 94 154 151 -117 94 -133 hvcurveto
          -34 vmoveto
          92 107 -74 -139 -144 -107 -67 -92 -92 -105 67 144 139 105 74 92 hvcurveto
          endchar
        </CharString>
        <CharString name="dieresis">
          -533 1225 356 hstem
          -23 192 callsubr
          vstem
          156 -22 callsubr
          endchar
        </CharString>
        <CharString name="dieresis.case">
          -558 1561 356 hstem
          -55 129 callgsubr
          vstem
          123 -23 callsubr
          endchar
        </CharString>
        <CharString name="dieresis.smcp">
          -558 1411 356 hstem
          -55 129 callgsubr
          vstem
          123 -21 callgsubr
          endchar
        </CharString>
        <CharString name="divide">
          -56 317 228 151 62 151 226 hstem
          528 228 vstem
          641 1135 rmoveto
          -61 -52 -52 -61 -64 52 -49 61 64 51 49 64 61 -51 52 -64 hvcurveto
          516 -439 245 callsubr
          510 -151 rmoveto
          -61 -52 -51 -62 -63 52 -52 61 64 51 52 63 62 -51 51 -64 hvcurveto
          endchar
        </CharString>
        <CharString name="dollar">
          -87 -29 49 -22 -21 27 -21 24 -21 1094 -20 370 49 -21 -20 26 -20 27 -20 22 -20 hstemhm
          106 310 100 41 176 41 127 277 hintmask 1000110000011100
          1178 377 rmoveto
          223 -146 119 -186 121 vhcurveto
          -72 47 rlineto
          529 vlineto
          175 -48 66 -164 36 -246 rrcurveto
          47 hlineto
          hintmask 1000101000011100
          308 4 104 6 88 vhcurveto
          -47 hlineto
          hintmask 1000100100011100
          -59 -8 -11 -31 -26 hhcurveto
          -19 -18 10 19 -33 hvcurveto
          -44 25 -51 26 -77 16 rrcurveto
          256 -41 vlineto
          hintmask 1000100010011100
          -249 vlineto
          hintmask 1000110000011100
          5 -35 -39 3 -45 hhcurveto
          -19 -19 -1 -1 -19 hvcurveto
          243 -41 vlineto
          hintmask 0001100001111100
          -247 vlineto
          -223 -26 -187 -121 -234 vvcurveto
          -226 170 -127 195 -129 vhcurveto
          45 -32 rlineto
          -553 vlineto
          -230 25 -101 130 -33 400 rrcurveto
          -48 hlineto
          -351 -2 -139 -6 -104 vhcurveto
          47 hlineto
          hintmask 0100110000111100
          59 9 10 31 26 hhcurveto
          29 31 -15 -16 39 hvcurveto
          44 -17 66 -37 119 -14 rrcurveto
          -247 41 vlineto
          hintmask 1000110000011100
          243 vlineto
          -1 20 21 -1 23 hhcurveto
          38 38 2 4 36 hvcurveto
          -247 41 vlineto
          hintmask 0010110000011100
          253 vlineto
          hintmask 1000110000011100
          229 38 175 128 228 vvcurveto
          -521 1053 rmoveto
          27 25 -2 -4 24 hvcurveto
          -509 vlineto
          -75 51 -57 43 -44 36 rrcurveto
          375 vlineto
          7 28 34 3 38 hhcurveto
          hintmask 1000110000111100
          -241 -162 rmoveto
          60 29 52 71 28 vhcurveto
          -328 vlineto
          -101 92 1 44 52 vvcurveto
          202 -1248 rmoveto
          -21 -21 1 1 -19 hvcurveto
          527 vlineto
          73 -52 58 -43 45 -35 rrcurveto
          -390 vlineto
          -6 -32 -38 -3 -45 hhcurveto
          156 365 rmoveto
          124 -103 3 -37 -55 vvcurveto
          -64 -29 -59 -98 -29 vhcurveto
          endchar
        </CharString>
        <CharString name="dollar.smcp">
          -97 -29 52 -26 -21 22 -21 30 -21 1239 49 -14 -20 26 -20 24 -20 21 -20 203 -20 hstemhm
          102 48 -46 277 141 41 131 41 121 305 hintmask 1000100001101110
          1161 336 rmoveto
          235 -205 121 -139 80 vhcurveto
          -82 45 rlineto
          397 vlineto
          172 -34 105 -120 37 -259 rrcurveto
          47 hlineto
          hintmask 1000010001101110
          282 4 97 6 80 vhcurveto
          -47 hlineto
          hintmask 1000001001101110
          -56 -8 -9 -35 -30 hhcurveto
          -17 -18 11 18 -33 hvcurveto
          -49 27 -63 28 -97 13 rrcurveto
          188 -41 vlineto
          hintmask 1000000011101110
          -183 vlineto
          hintmask 1000100001101110
          2 -25 -26 1 -29 hhcurveto
          -17 -17 0 -1 -17 hvcurveto
          181 -41 vlineto
          hintmask 1000000101011110
          -184 vlineto
          -241 -22 -177 -113 -209 vvcurveto
          -250 248 -139 150 -84 vhcurveto
          20 -11 rlineto
          -413 vlineto
          hintmask 0001100001101110
          -224 31 -120 140 -28 318 rrcurveto
          -48 hlineto
          -313 -2 -127 -6 -92 vhcurveto
          47 hlineto
          hintmask 0100100001101110
          59 9 10 31 28 hhcurveto
          15 20 -8 -15 35 hvcurveto
          103 -42 68 -26 93 -9 rrcurveto
          -185 41 vlineto
          hintmask 1000100001101110
          181 vlineto
          -1 17 18 0 20 hhcurveto
          26 25 1 1 25 hvcurveto
          -182 41 vlineto
          hintmask 0010100001101110
          186 vlineto
          hintmask 1000100001101110
          252 26 174 115 218 vvcurveto
          -547 889 rmoveto
          28 27 -1 -3 25 hvcurveto
          -382 vlineto
          -51 29 -43 24 -37 22 rrcurveto
          310 vlineto
          1 16 17 0 18 hhcurveto
          hintmask 1000100001011110
          -233 -117 rmoveto
          61 44 37 97 14 vhcurveto
          -281 vlineto
          -108 68 -33 42 59 vvcurveto
          244 -1085 rmoveto
          -21 -21 1 1 -20 hvcurveto
          396 vlineto
          52 -27 43 -24 36 -21 rrcurveto
          -322 vlineto
          -3 -22 -23 -1 -24 hhcurveto
          110 301 rmoveto
          91 -58 30 -42 -72 vvcurveto
          -61 -49 -38 -72 -18 vhcurveto
          endchar
        </CharString>
        <CharString name="dotaccent">
          -926 1249 353 hstem
          -20 446 vstem
          203 283 callgsubr
          -52 callsubr
          endchar
        </CharString>
        <CharString name="dotaccent.case">
          -926 1556 353 hstem
          -4 405 vstem
          199 73 callgsubr
          endchar
        </CharString>
        <CharString name="dotaccent.smcp">
          -926 1413 352 hstem
          -4 405 vstem
          199 11 callsubr
          endchar
        </CharString>
        <CharString name="dotlessi">
          19 callsubr
          194 callsubr
          hintmask 10011000
          526 1085 rmoveto
          hintmask 10101000
          -20 -91 callsubr
          hintmask 11011000
          -90 callgsubr
          -70 callgsubr
          endchar
        </CharString>
        <CharString name="dotlessj">
          137 callsubr
          hstemhm
          -344 385 111 368 hintmask 10010100
          520 1085 rmoveto
          hintmask 10100100
          -20 -91 callsubr
          hintmask 11011100
          -56 callsubr
        </CharString>
        <CharString name="e">
          58 callgsubr
          100 callsubr
          682 195 -91 callgsubr
        </CharString>
        <CharString name="e.smcp">
          -64 0 29 callsubr
          hintmask 11101000
          1169 283 4 callsubr
          hintmask 11011000
          -41 vlineto
          -76 callgsubr
          -96 callgsubr
          226 6 125 callgsubr
          131 185 133 callsubr
          hintmask 11101000
          52 callsubr
        </CharString>
        <CharString name="eacute">
          58 callgsubr
          153 -20 100 callsubr
          807 -43 callgsubr
          -125 -1298 -91 callgsubr
        </CharString>
        <CharString name="eacute.smcp">
          -64 0 29 callsubr
          hintmask 11101000
          872 -57 callsubr
          297 -1210 4 callsubr
          hintmask 11011000
          -41 vlineto
          -76 callgsubr
          -96 callgsubr
          226 6 125 callgsubr
          131 185 133 callsubr
          hintmask 11101000
          52 callsubr
        </CharString>
        <CharString name="ebreve">
          58 callgsubr
          163 244 100 callsubr
          569 95 callsubr
          408 -622 rmoveto
          330 -148 129 -239 79 callgsubr
          211 -146 263 243 133 183 165 52 vhcurveto
          -35 13 rlineto
          -125 -90 -103 -12 -55 hhcurveto
          0 callsubr
          127 411 -50 callgsubr
        </CharString>
        <CharString name="ebreve.smcp">
          159 callgsubr
          131 203 hstemhm
          -1 callsubr
          hintmask 11101100
          625 94 callgsubr
          544 -1093 4 callsubr
          hintmask 11011100
          -41 vlineto
          -76 callgsubr
          -96 callgsubr
          226 6 125 callgsubr
          131 185 133 callsubr
          hintmask 11101100
          52 callsubr
        </CharString>
</ttFont>
